<svg width="49" height="48" fill="none" xmlns="http://www.w3.org/2000/svg">
  <path d="M38.484 2c2.762 0 5 2.558 5 5.714v28.572c0 3.156-2.238 5.714-5 5.714-2.761 0-5-2.558-5-5.714V7.714c0-3.156 2.239-5.714 5-5.714ZM29.484 15.818c0-3.213-2.238-5.818-5-5.818-2.761 0-5 2.605-5 5.818v20.364c0 3.213 2.239 5.818 5 5.818 2.762 0 5-2.605 5-5.818V15.818Z" fill="#027FC2" />
  <path d="M15.484 24.75c0-3.176-2.238-5.75-5-5.75-2.761 0-5 2.574-5 5.75v11.5c0 3.176 2.239 5.75 5 5.75 2.762 0 5-2.574 5-5.75v-11.5Z" fill="#51BCF4" />
</svg>