<svg width="332" height="227" viewBox="0 0 332 227" fill="none" xmlns="http://www.w3.org/2000/svg">
<path fill-rule="evenodd" clip-rule="evenodd" d="M160.793 0C191.389 0 217.696 18.3692 229.286 44.6811C233.208 43.5811 237.344 42.9928 241.618 42.9928C266.502 42.9928 286.727 62.9369 287.182 87.7122C311.957 88.1668 331.901 108.393 331.901 133.276C331.901 158.445 311.498 178.848 286.329 178.848C284.418 178.848 282.534 178.731 280.685 178.502C273.421 198.755 254.052 213.242 231.3 213.242C222.022 213.242 213.307 210.834 205.746 206.608C196.153 219.013 181.124 227 164.23 227C145.142 227 128.435 216.804 119.259 201.56C111.983 205.711 103.56 208.083 94.5828 208.083C75.0776 208.083 58.1878 196.886 49.991 180.568L49.8713 180.568C22.3281 180.568 0 158.24 0 130.697C0 106.682 16.9749 86.6308 39.5809 81.8886C40.3786 60.2721 58.1543 42.9928 79.9658 42.9928C84.2346 42.9928 88.3488 43.6547 92.2114 44.8814C103.756 18.4625 130.118 0 160.793 0Z" fill="#51BCF4"/>
</svg>
