<svg width="48" height="48" fill="none" xmlns="http://www.w3.org/2000/svg"><g clip-path="url(#a)"><path d="M25.502 13.94c2.114-1.57 5.08.15 4.767 2.764l-3.375 28.23c-.324 2.708-3.802 3.613-5.405 1.407l-5.668-7.797a3 3 0 0 0-2.1-1.219l-9.583-1.047c-2.711-.296-3.652-3.765-1.462-5.391l22.826-16.948Z" fill="#027FC2"/><path fill-rule="evenodd" clip-rule="evenodd" d="M26.022 18.535 7.108 32.58l7.047.77a7 7 0 0 1 4.902 2.843l4.168 5.735 2.797-23.392Zm4.247-1.83c.313-2.615-2.653-4.335-4.767-2.766L2.676 30.887c-2.19 1.626-1.25 5.095 1.462 5.391l9.582 1.047a3 3 0 0 1 2.1 1.219l5.669 7.797c1.603 2.206 5.081 1.3 5.405-1.408l3.375-28.229Z" fill="#027FC2"/><path fill-rule="evenodd" clip-rule="evenodd" d="M15.891 2.619a2 2 0 0 1 2.804.375l4.334 5.672a2 2 0 0 1-3.179 2.429l-4.334-5.673a2 2 0 0 1 .375-2.803ZM29.594.394a2 2 0 0 1 1.693 2.265l-1.022 7.065a2 2 0 1 1-3.959-.572l1.022-7.065A2 2 0 0 1 29.594.394ZM41.346 7.39a2 2 0 0 1-.509 2.783l-5.873 4.059a2 2 0 0 1-2.274-3.29l5.873-4.06a2 2 0 0 1 2.783.509ZM44.77 19.293a2 2 0 0 0-1.726-2.24l-7.08-.918a2 2 0 0 0-.514 3.967l7.08.917a2 2 0 0 0 2.24-1.726Z" fill="#51BCF4"/></g><defs><clipPath id="a"><path fill="#fff" d="M0 0h48v48H0z"/></clipPath></defs></svg>