<svg width="48" height="48" fill="none" xmlns="http://www.w3.org/2000/svg">
  <path fill-rule="evenodd" clip-rule="evenodd" d="M10.806 36.685c5.415 0 9.805-4.39 9.805-9.805 0-5.416-4.39-9.806-9.806-9.806C5.39 17.074 1 21.464 1 26.88c0 5.415 4.39 9.805 9.806 9.805Zm6.193-12.07a1.634 1.634 0 1 0-2.58-2.007l-4.655 5.986-2.783-2.44a1.634 1.634 0 0 0-2.155 2.458l4.086 3.583a1.634 1.634 0 0 0 2.367-.226L17 24.615Z" fill="#027FC2" />
  <path fill-rule="evenodd" clip-rule="evenodd" d="M20.61 4a3.269 3.269 0 0 0-3.268 3.269v34.319a3.268 3.268 0 0 0 3.268 3.268h22.88a3.268 3.268 0 0 0 3.268-3.268V14.334L35.975 4H20.61Zm0 3.269h13.074v6.128a3.269 3.269 0 0 0 3.269 3.269h6.537v24.922H20.61V7.268Zm16.345 2.197-.002-.002v3.933h.002V9.466Z" fill="#51BCF4" />
  <path fill-rule="evenodd" clip-rule="evenodd" d="M23.88 21.976c0-.902.733-1.634 1.635-1.634H38.59a1.634 1.634 0 1 1 0 3.268H25.515a1.634 1.634 0 0 1-1.634-1.634ZM23.88 28.515c0-.902.733-1.634 1.635-1.634H38.59a1.634 1.634 0 1 1 0 3.268H25.515a1.634 1.634 0 0 1-1.634-1.634ZM23.88 35.05c0-.903.733-1.635 1.635-1.635H38.59a1.634 1.634 0 1 1 0 3.269H25.515a1.634 1.634 0 0 1-1.634-1.635Z" fill="#51BCF4" />
</svg>