<svg width="48" height="48" viewBox="0 0 48 48" fill="none" xmlns="http://www.w3.org/2000/svg">
<g clip-path="url(#clip0_5145_45249)">
<path fill-rule="evenodd" clip-rule="evenodd" d="M24 4.375C17.2345 4.375 11.75 9.85951 11.75 16.625C11.75 23.3905 17.2345 28.875 24 28.875C30.7655 28.875 36.25 23.3905 36.25 16.625C36.25 9.85951 30.7655 4.375 24 4.375ZM8.25 16.625C8.25 7.92651 15.3015 0.875 24 0.875C32.6985 0.875 39.75 7.92651 39.75 16.625C39.75 25.3235 32.6985 32.375 24 32.375C15.3015 32.375 8.25 25.3235 8.25 16.625Z" fill="#027FC2"/>
<path d="M20.5 14C20.5 15.4497 19.7165 16.625 18.75 16.625C17.7835 16.625 17 15.4497 17 14C17 12.5503 17.7835 11.375 18.75 11.375C19.7165 11.375 20.5 12.5503 20.5 14Z" fill="#027FC2"/>
<path d="M31 14C31 15.4497 30.2165 16.625 29.25 16.625C28.2835 16.625 27.5 15.4497 27.5 14C27.5 12.5503 28.2835 11.375 29.25 11.375C30.2165 11.375 31 12.5503 31 14Z" fill="#027FC2"/>
<path fill-rule="evenodd" clip-rule="evenodd" d="M20.2046 23.7233C20.2045 23.7233 20.2051 23.7225 20.2063 23.7207C19.6702 24.5249 18.5836 24.7422 17.7795 24.2061C16.9753 23.67 16.758 22.5834 17.2941 21.7793C17.8757 20.9068 18.8788 20.2958 19.9383 19.905C21.0488 19.4954 22.4243 19.25 24.0002 19.25C27.1979 19.25 29.2403 20.2652 30.4876 21.5126C31.171 22.196 31.171 23.304 30.4876 23.9874C29.8042 24.6709 28.6962 24.6709 28.0128 23.9874C27.5101 23.4848 26.4025 22.75 24.0002 22.75C22.776 22.75 21.8183 22.9421 21.1495 23.1887C20.8154 23.312 20.572 23.4419 20.4087 23.5533C20.2555 23.6578 20.2049 23.7236 20.2046 23.7233Z" fill="#027FC2"/>
<path fill-rule="evenodd" clip-rule="evenodd" d="M3 28.125C3 27.5727 3.44772 27.125 4 27.125H44C44.5523 27.125 45 27.5727 45 28.125V47.125C45 47.6773 44.5523 48.125 44 48.125H4C3.44772 48.125 3 47.6773 3 47.125V28.125ZM10.8749 43.7514C10.8749 45.5014 12.6249 45.5014 12.6249 45.5014C12.6249 45.5014 14.3749 45.5014 14.3749 43.7514H10.8749ZM25.7499 32.375C24.7834 32.375 23.9999 33.1585 23.9999 34.125C23.9999 35.0915 24.7834 35.875 25.7499 35.875H41.4999C42.4664 35.875 43.2499 35.0915 43.2499 34.125C43.2499 33.1585 42.4664 32.375 41.4999 32.375H25.7499ZM23.9999 41.1257C23.9999 40.1592 24.7834 39.3757 25.7499 39.3757H36.2499C37.2164 39.3757 37.9999 40.1592 37.9999 41.1257C37.9999 42.0922 37.2164 42.8757 36.2499 42.8757H25.7499C24.7834 42.8757 23.9999 42.0922 23.9999 41.1257ZM10.8749 30.75V32.6885C7.7344 33.9032 6.68648 38.4042 6.52297 41.8766C6.49699 42.4283 6.94695 42.875 7.49924 42.875H17.7492C18.3015 42.875 18.7515 42.4283 18.7255 41.8766C18.562 38.4047 17.5144 33.9045 14.3749 32.689V30.75C14.3749 30.1977 13.9272 29.75 13.3749 29.75H11.8749C11.3226 29.75 10.8749 30.1977 10.8749 30.75Z" fill="#51BCF4"/>
</g>
<defs>
<clipPath id="clip0_5145_45249">
<rect width="48" height="48" fill="white"/>
</clipPath>
</defs>
</svg>
