<svg width="48" height="48" fill="none" xmlns="http://www.w3.org/2000/svg">
  <path fill-rule="evenodd" clip-rule="evenodd" d="M23.5 1.65c-3.863 0-7.011 3.062-7.193 6.902H5.57l-.239.016-.011.001a1.94 1.94 0 0 0-1.67 1.925v.012l.016.24.002.011c.127.947.933 1.68 1.913 1.68H6.94l2.67 27.33.049.38.002.011c.48 2.972 3.034 5.192 6.067 5.192h8.187l-.563-.591a13.5 13.5 0 0 1-2.213-3.104l-.098-.19h-5.305l-.25-.013a2.295 2.295 0 0 1-2.033-2.065l-2.633-26.95H36.18l-.95 9.74.313.061c1.048.205 2.052.533 2.998.97l.447.205 1.072-10.976h1.372l.239-.016.011-.002a1.94 1.94 0 0 0 1.67-1.925c0-1.07-.863-1.942-1.932-1.942H30.692l-.001-.052v-.01c-.212-3.81-3.348-6.84-7.19-6.84Zm0 3.886c-1.724 0-3.147 1.32-3.321 3.016h6.643c-.174-1.697-1.597-3.016-3.322-3.016Z" fill="#027FC2" />
  <path fill-rule="evenodd" clip-rule="evenodd" d="M33.5 24C39.851 24 45 29.149 45 35.5S39.851 47 33.5 47 22 41.851 22 35.5 27.149 24 33.5 24Zm2.121 11.38 4.319-4.32a1.5 1.5 0 1 0-2.122-2.12L33.5 33.258l-4.318-4.318a1.5 1.5 0 0 0-2.122 2.12l4.319 4.32-4.44 4.438a1.5 1.5 0 0 0 2.122 2.122L33.5 37.5l4.44 4.44a1.5 1.5 0 1 0 2.12-2.122l-4.439-4.439Z" fill="#51BCF4" />
</svg>