<svg width="192" height="131" viewBox="0 0 192 131" fill="none" xmlns="http://www.w3.org/2000/svg">
<path fill-rule="evenodd" clip-rule="evenodd" d="M92.7911 0C110.448 0 125.629 10.6006 132.318 25.7848C134.581 25.1499 136.969 24.8104 139.435 24.8104C153.795 24.8104 165.467 36.32 165.73 50.6177C180.028 50.8794 191.538 62.5517 191.538 76.9124C191.538 91.437 179.763 103.212 165.239 103.212C164.135 103.212 163.048 103.144 161.98 103.012C157.788 114.699 146.61 123.059 133.48 123.059C128.127 123.059 123.098 121.67 118.735 119.231C113.199 126.39 104.525 131 94.7754 131C83.7593 131 74.1177 125.115 68.8228 116.318C64.6235 118.713 59.7626 120.082 54.582 120.082C43.3259 120.082 33.5791 113.62 28.8487 104.204L28.7802 104.204C12.8853 104.204 0 91.3185 0 75.4236C0 61.5645 9.79599 49.9935 22.8416 47.2568C23.302 34.7821 33.5602 24.8104 46.1474 24.8104C48.6107 24.8104 50.9848 25.1923 53.2138 25.9001C59.8759 10.6543 75.0893 0 92.7911 0Z" fill="white"/>
</svg>
