<svg width="48" height="48" fill="none" xmlns="http://www.w3.org/2000/svg"><g clip-path="url(#a)"><path d="M.414 7.958C.414 5.22 2.624 3 5.352 3h34.017c2.727 0 4.938 2.22 4.938 4.958v22.588c0-6.694-5.404-12.12-12.07-12.12-6.667 0-12.071 5.426-12.071 12.12a12.1 12.1 0 002.759 7.713H5.352c-2.727 0-4.938-2.22-4.938-4.958V7.958z" fill="#51BCF4"/><path d="M40.424 36.19a9.9 9.9 0 001.826-5.746c0-5.476-4.422-9.916-9.876-9.916s-9.876 4.44-9.876 9.916c0 5.477 4.422 9.917 9.876 9.917a9.805 9.805 0 005.722-1.833l5.733 5.756a1.64 1.64 0 002.328 0 1.657 1.657 0 000-2.337l-5.733-5.757zm-1.466-5.746c0 3.652-2.948 6.612-6.584 6.612-3.636 0-6.584-2.96-6.584-6.612 0-3.65 2.948-6.61 6.584-6.61 3.636 0 6.584 2.96 6.584 6.61z" fill="#027FC2"/></g><defs><clipPath id="a"><path fill="#fff" transform="translate(.414)" d="M0 0h47.331v48H0z"/></clipPath></defs></svg>