<svg width="332" height="227" fill="none" xmlns="http://www.w3.org/2000/svg"><path fill-rule="evenodd" clip-rule="evenodd" d="M160.793 0c30.596 0 56.903 18.37 68.493 44.681a45.604 45.604 0 0112.332-1.688c24.884 0 45.109 19.944 45.564 44.72 24.775.454 44.719 20.68 44.719 45.563 0 25.169-20.403 45.572-45.572 45.572a45.91 45.91 0 01-5.644-.346c-7.264 20.253-26.633 34.74-49.385 34.74-9.278 0-17.993-2.408-25.554-6.634C196.153 219.013 181.124 227 164.23 227c-19.088 0-35.795-10.196-44.971-25.44-7.276 4.151-15.699 6.523-24.676 6.523-19.505 0-36.395-11.197-44.592-27.515h-.12C22.328 180.568 0 158.24 0 130.697c0-24.015 16.975-44.066 39.58-48.808.799-21.617 18.574-38.896 40.386-38.896 4.269 0 8.383.662 12.245 1.888C103.756 18.462 130.118 0 160.793 0z" fill="#51BCF4"/></svg>