<svg width="48" height="48" fill="none" xmlns="http://www.w3.org/2000/svg"><path d="M45.882 21.72a7.14 7.14 0 01-.303 2.066 7.154 7.154 0 011.466 4.338c0 2.507-1.41 4.885-3.68 6.197-.585.34-1.248.52-1.928.52h-13.48l.337 6.861a5.91 5.91 0 01-1.658 4.433A5.997 5.997 0 0122.259 48c-2.922 0-5.507-1.954-6.283-4.751L10 28h4l5.876 14.177c.146.515.455.969.883 1.294a2.5 2.5 0 001.488.51 1.979 1.979 0 002.006-2.077l-.539-11.078h17.667c1-.608 1.618-1.636 1.618-2.702a3.154 3.154 0 00-1.1-2.401l-1.232-1.06.787-1.425c.259-.468.388-.982.388-1.524a3.152 3.152 0 00-1.102-2.4l-1.23-1.061.78-1.418c.26-.47.389-.983.389-1.525a3.152 3.152 0 00-1.102-2.4l-1.23-1.061.78-1.418A3.16 3.16 0 0039 7.184a3.189 3.189 0 00-1.373-1.17H16V2h21.667c.512-.002 1.019.1 1.489.302a7.178 7.178 0 014.096 8.676 7.154 7.154 0 011.163 6.404 7.154 7.154 0 011.467 4.338z" fill="#027FC2"/><path d="M2 6a2 2 0 012-2h8v20H4a2 2 0 01-2-2V6z" fill="#51BCF4" stroke="#51BCF4" stroke-width="4"/></svg>