<svg width="49" height="48" fill="none" xmlns="http://www.w3.org/2000/svg"><g clip-path="url(#a)"><rect x="9.414" y="5" width="39" height="30" rx="2" fill="#51BCF4"/><path d="M32.414 46v-7h-6l6 7z" fill="#027FC2"/><path fill-rule="evenodd" clip-rule="evenodd" d="M2.364 8c-1.077 0-1.95.891-1.95 1.991v27.874c0 1.1.873 1.991 1.95 1.991h35.1c1.077 0 1.95-.891 1.95-1.99V9.99c0-1.1-.873-1.991-1.95-1.991h-35.1zm5.85 21.901c-1.077 0-1.95.891-1.95 1.991s.873 1.991 1.95 1.991h23.4c1.077 0 1.95-.891 1.95-1.99 0-1.1-.873-1.992-1.95-1.992h-23.4zm-1.95-5.972c0-1.1.873-1.991 1.95-1.991h23.4c1.077 0 1.95.891 1.95 1.99 0 1.1-.873 1.992-1.95 1.992h-23.4c-1.077 0-1.95-.892-1.95-1.991zm1.95-9.957c-1.077 0-1.95.892-1.95 1.991 0 1.1.873 1.991 1.95 1.991h23.4c1.077 0 1.95-.891 1.95-1.99 0-1.1-.873-1.992-1.95-1.992h-23.4z" fill="#027FC2"/></g><defs><clipPath id="a"><path fill="#fff" transform="translate(.414)" d="M0 0h48v48H0z"/></clipPath></defs></svg>