<svg width="48" height="48" fill="none" xmlns="http://www.w3.org/2000/svg"><g clip-path="url(#clip0_5145_45249)"><path fill-rule="evenodd" clip-rule="evenodd" d="M24 4.375c-6.765 0-12.25 5.485-12.25 12.25s5.485 12.25 12.25 12.25 12.25-5.485 12.25-12.25S30.765 4.375 24 4.375zM8.25 16.625C8.25 7.927 15.302.875 24 .875c8.699 0 15.75 7.052 15.75 15.75S32.699 32.375 24 32.375c-8.698 0-15.75-7.052-15.75-15.75z" fill="#027FC2"/><path d="M20.5 14c0 1.45-.784 2.625-1.75 2.625S17 15.45 17 14s.784-2.625 1.75-2.625S20.5 12.55 20.5 14zM31 14c0 1.45-.784 2.625-1.75 2.625S27.5 15.45 27.5 14s.784-2.625 1.75-2.625S31 12.55 31 14z" fill="#027FC2"/><path fill-rule="evenodd" clip-rule="evenodd" d="M20.205 23.723l.001-.002a1.75 1.75 0 01-2.912-1.942c.582-.872 1.585-1.483 2.644-1.874 1.11-.41 2.486-.655 4.062-.655 3.198 0 5.24 1.015 6.488 2.263a1.75 1.75 0 11-2.475 2.474c-.503-.502-1.61-1.237-4.013-1.237-1.224 0-2.182.192-2.85.439a3.45 3.45 0 00-.741.364c-.153.105-.204.17-.204.17z" fill="#027FC2"/><path fill-rule="evenodd" clip-rule="evenodd" d="M3 28.125a1 1 0 011-1h40a1 1 0 011 1v19a1 1 0 01-1 1H4a1 1 0 01-1-1v-19zm7.875 15.626c0 1.75 1.75 1.75 1.75 1.75s1.75 0 1.75-1.75h-3.5zM25.75 32.375a1.75 1.75 0 100 3.5H41.5a1.75 1.75 0 100-3.5H25.75zM24 41.125c0-.966.783-1.75 1.75-1.75h10.5a1.75 1.75 0 110 3.5h-10.5a1.75 1.75 0 01-1.75-1.75zM10.875 30.75v1.938c-3.14 1.215-4.189 5.716-4.352 9.189a.963.963 0 00.976.998h10.25a.963.963 0 00.977-.998c-.164-3.472-1.212-7.973-4.351-9.188V30.75a1 1 0 00-1-1h-1.5a1 1 0 00-1 1z" fill="#51BCF4"/></g><defs><clipPath id="clip0_5145_45249"><path fill="#fff" d="M0 0h48v48H0z"/></clipPath></defs></svg>