<svg width="48" height="48" fill="none" xmlns="http://www.w3.org/2000/svg"><path d="M5.646 28.793c0-10.2 8.3-18.5 18.5-18.5 10.201 0 18.5 8.3 18.5 18.5s-8.299 18.5-18.5 18.5c-10.2 0-18.5-8.3-18.5-18.5z" fill="#51BCF4"/><path d="M24.345 0a13.068 13.068 0 00-12.896 11.057c-.17 1.092.74 1.995 1.847 1.995h2.632c1.105 0 1.97-.917 2.309-1.968a6.428 6.428 0 016.108-4.449 6.423 6.423 0 016.416 6.417c0 1.984-1.596 3.423-4.034 5.394a30.564 30.564 0 00-2.293 1.987c-3.31 3.308-3.407 6.822-3.407 7.213 0 1.222.99 2.213 2.213 2.213h2.322c1.16 0 2.099-.94 2.097-2.1.003-.053.11-1.28 1.463-2.631.498-.498 1.125-.995 1.775-1.52 2.584-2.093 6.496-5.255 6.496-10.556A13.061 13.061 0 0024.345 0zm-3.318 35.176a2 2 0 012-2h2.635a2 2 0 012 2v2.636a2 2 0 01-2 2h-2.635a2 2 0 01-2-2v-2.636z" fill="#027FC2"/></svg>