<svg width="48" height="48" fill="none" xmlns="http://www.w3.org/2000/svg"><g clip-path="url(#clip0_5145_44123)"><path d="M5.729 19.083a20.5 20.5 0 1010.705-12.97L25.5 24.5 5.729 19.083z" fill="#51BCF4"/><rect x="9" y="27" width="14" height="20" rx="1.733" fill="#027FC2"/><rect x="26" y="19" width="14" height="28" rx="1.733" fill="#027FC2"/><path fill-rule="evenodd" clip-rule="evenodd" d="M39.108 7.523a1.733 1.733 0 01-.031 2.451l-5.333 5.2a1.733 1.733 0 01-2.276.126l-3.334-2.6a1.733 1.733 0 112.132-2.733l2.14 1.67 4.25-4.145a1.733 1.733 0 012.452.031zM0 45.5C0 44.12.784 43 1.75 43h45.5c.967 0 1.75 1.12 1.75 2.5s-.783 2.5-1.75 2.5H1.75C.784 48 0 46.88 0 45.5z" fill="#027FC2"/></g><defs><clipPath id="clip0_5145_44123"><path fill="#fff" d="M0 0h48v48H0z"/></clipPath></defs></svg>