<svg width="49" height="48" fill="none" xmlns="http://www.w3.org/2000/svg"><g clip-path="url(#a)"><path fill-rule="evenodd" clip-rule="evenodd" d="M24.414 4.375c-6.765 0-12.25 5.485-12.25 12.25s5.485 12.25 12.25 12.25c6.766 0 12.25-5.485 12.25-12.25s-5.484-12.25-12.25-12.25zm-15.75 12.25c0-8.698 7.052-15.75 15.75-15.75s15.75 7.052 15.75 15.75-7.052 15.75-15.75 15.75-15.75-7.052-15.75-15.75z" fill="#027FC2"/><path d="M20.914 14c0 1.45-.783 2.625-1.75 2.625-.966 0-1.75-1.175-1.75-2.625s.784-2.625 1.75-2.625c.967 0 1.75 1.175 1.75 2.625zm10.5 0c0 1.45-.783 2.625-1.75 2.625-.966 0-1.75-1.175-1.75-2.625s.784-2.625 1.75-2.625c.967 0 1.75 1.175 1.75 2.625z" fill="#027FC2"/><path fill-rule="evenodd" clip-rule="evenodd" d="M28.21 20.027l-.002.002a1.75 1.75 0 112.912 1.942c-.582.872-1.585 1.483-2.644 1.874-1.11.41-2.486.655-4.062.655-3.198 0-5.24-1.015-6.488-2.263a1.75 1.75 0 112.475-2.474c.503.502 1.61 1.237 4.013 1.237 1.224 0 2.182-.192 2.85-.439a3.45 3.45 0 00.741-.364c.154-.105.204-.17.204-.17z" fill="#027FC2"/><path fill-rule="evenodd" clip-rule="evenodd" d="M3.414 28.125a1 1 0 011-1h40a1 1 0 011 1v19a1 1 0 01-1 1h-40a1 1 0 01-1-1v-19zm7.874 15.624c0 1.75 1.75 1.75 1.75 1.75s1.75 0 1.75-1.75h-3.5zm14.875-11.374a1.75 1.75 0 100 3.5h15.75a1.75 1.75 0 100-3.5h-15.75zm-1.75 8.75c0-.966.783-1.75 1.75-1.75h10.5a1.75 1.75 0 110 3.5h-10.5a1.75 1.75 0 01-1.75-1.75zM11.288 30.75v1.938c-3.14 1.215-4.188 5.716-4.352 9.189a.963.963 0 00.976.998h10.25a.963.963 0 00.977-.998c-.164-3.472-1.212-7.973-4.351-9.188V30.75a1 1 0 00-1-1h-1.5a1 1 0 00-1 1z" fill="#51BCF4"/></g><defs><clipPath id="a"><path fill="#fff" transform="translate(.414)" d="M0 0h48v48H0z"/></clipPath></defs></svg>