<svg width="192" height="131" fill="none" xmlns="http://www.w3.org/2000/svg"><path fill-rule="evenodd" clip-rule="evenodd" d="M92.791 0c17.657 0 32.838 10.6 39.527 25.785a26.317 26.317 0 017.117-.975c14.36 0 26.032 11.51 26.295 25.808 14.298.261 25.808 11.934 25.808 26.294 0 14.525-11.775 26.3-26.299 26.3-1.104 0-2.191-.068-3.259-.2-4.192 11.687-15.37 20.047-28.5 20.047a30.125 30.125 0 01-14.745-3.828C113.199 126.39 104.525 131 94.775 131c-11.016 0-20.657-5.885-25.952-14.682a28.655 28.655 0 01-14.241 3.764c-11.256 0-21.003-6.462-25.733-15.878h-.069C12.885 104.204 0 91.319 0 75.424c0-13.86 9.796-25.43 22.842-28.167.46-12.475 10.718-22.447 23.305-22.447 2.464 0 4.838.382 7.067 1.09C59.876 10.654 75.089 0 92.79 0z" fill="#fff"/></svg>