<svg width="173" height="40" fill="none" xmlns="http://www.w3.org/2000/svg"><path d="M36 5L7 24.744l11.154 4.936L34.66 7.244l-12.49 24.23L31.54 40 36 5z" fill="#EDF6FB"/><path d="M40.903 23.177l3.516-.342c.212 1.18.639 2.047 1.282 2.6.65.554 1.526.83 2.624.83 1.164 0 2.039-.244 2.625-.732.594-.496.89-1.074.89-1.733 0-.423-.125-.781-.378-1.074-.244-.302-.675-.562-1.294-.782-.423-.146-1.387-.407-2.893-.78-1.936-.481-3.295-1.071-4.077-1.77-1.098-.986-1.648-2.186-1.648-3.602 0-.912.257-1.762.77-2.551.52-.798 1.265-1.404 2.233-1.82.977-.414 2.153-.622 3.528-.622 2.246 0 3.935.493 5.066 1.477 1.14.985 1.737 2.3 1.794 3.943l-3.613.159c-.155-.92-.488-1.579-1-1.978-.505-.407-1.266-.61-2.284-.61-1.05 0-1.871.216-2.465.647a1.304 1.304 0 00-.574 1.11c0 .424.179.786.537 1.087.456.383 1.563.782 3.32 1.197 1.758.415 3.056.846 3.894 1.294.847.439 1.506 1.045 1.978 1.818.48.765.72 1.713.72 2.845a5.27 5.27 0 01-.854 2.88c-.57.896-1.376 1.563-2.417 2.002-1.042.432-2.34.647-3.894.647-2.263 0-4-.52-5.213-1.562-1.212-1.05-1.937-2.576-2.173-4.578zm20.13-3.186l-3.113-.561c.35-1.254.952-2.181 1.807-2.784.854-.602 2.124-.903 3.808-.903 1.53 0 2.67.183 3.418.55.749.358 1.274.817 1.575 1.379.31.553.464 1.575.464 3.064l-.037 4.004c0 1.14.053 1.981.159 2.527.114.537.321 1.114.622 1.733h-3.393c-.09-.228-.2-.566-.33-1.013a6.198 6.198 0 00-.122-.403c-.586.57-1.213.997-1.88 1.282a5.383 5.383 0 01-2.136.427c-1.335 0-2.389-.362-3.162-1.087-.765-.724-1.147-1.64-1.147-2.746 0-.733.175-1.384.525-1.953a3.386 3.386 0 011.465-1.319c.634-.309 1.546-.577 2.734-.805 1.603-.301 2.714-.582 3.333-.842v-.342c0-.66-.163-1.127-.489-1.404-.325-.285-.94-.427-1.843-.427-.61 0-1.086.122-1.428.366-.342.236-.619.655-.83 1.257zm4.59 2.783c-.44.147-1.136.322-2.088.525-.952.204-1.575.403-1.867.599-.448.317-.672.72-.672 1.208 0 .48.18.895.537 1.245.358.35.814.525 1.367.525.619 0 1.209-.204 1.77-.61.415-.31.688-.688.818-1.136.09-.293.135-.85.135-1.672v-.684zm6.445 7.08l3.918.477c.065.455.216.769.452.94.325.244.838.366 1.538.366.895 0 1.567-.135 2.014-.403.301-.18.53-.468.684-.867.106-.285.158-.81.158-1.575V26.9c-1.025 1.4-2.319 2.1-3.881 2.1-1.742 0-3.121-.736-4.138-2.21-.798-1.163-1.197-2.612-1.197-4.345 0-2.173.521-3.833 1.563-4.98 1.05-1.148 2.352-1.722 3.906-1.722 1.603 0 2.926.704 3.967 2.112v-1.819h3.21V27.67c0 1.53-.125 2.674-.378 3.43-.252.757-.606 1.351-1.062 1.783-.456.431-1.066.769-1.83 1.013-.758.244-1.718.366-2.882.366-2.197 0-3.755-.378-4.675-1.135-.92-.749-1.38-1.7-1.38-2.856 0-.114.005-.253.013-.415zm3.064-7.604c0 1.375.264 2.384.793 3.027.537.635 1.197.952 1.978.952.838 0 1.546-.325 2.124-.977.578-.659.867-1.631.867-2.917 0-1.343-.277-2.34-.83-2.99-.554-.652-1.254-.977-2.1-.977-.822 0-1.502.321-2.039.964-.529.635-.793 1.607-.793 2.918zm20.044 2.624l3.418.574c-.44 1.253-1.135 2.21-2.088 2.868-.944.651-2.128.977-3.552.977-2.254 0-3.922-.736-5.005-2.21-.854-1.18-1.281-2.669-1.281-4.467 0-2.149.561-3.83 1.684-5.042 1.123-1.22 2.543-1.83 4.26-1.83 1.929 0 3.45.638 4.566 1.916 1.115 1.27 1.648 3.218 1.599 5.847h-8.594c.024 1.017.301 1.81.83 2.38.53.562 1.188.843 1.978.843.537 0 .989-.147 1.355-.44.366-.293.643-.765.83-1.416zm.195-3.467c-.024-.993-.28-1.745-.769-2.258-.488-.52-1.082-.781-1.782-.781-.749 0-1.367.272-1.856.818-.488.545-.728 1.285-.72 2.221h5.127zM101.56 29V11.105h5.408l3.247 12.206 3.21-12.207h5.42V29h-3.357V14.913L111.936 29h-3.479l-3.54-14.087V29h-3.357zm23.413-9.009l-3.113-.561c.35-1.254.952-2.181 1.807-2.784.854-.602 2.124-.903 3.809-.903 1.53 0 2.669.183 3.418.55.748.358 1.273.817 1.574 1.379.31.553.464 1.575.464 3.064l-.036 4.004c0 1.14.052 1.981.158 2.527.114.537.322 1.114.623 1.733h-3.394a12.795 12.795 0 01-.329-1.013 6.499 6.499 0 00-.122-.403c-.586.57-1.213.997-1.88 1.282a5.389 5.389 0 01-2.137.427c-1.334 0-2.388-.362-3.161-1.087-.765-.724-1.148-1.64-1.148-2.746 0-.733.175-1.384.525-1.953a3.385 3.385 0 011.465-1.319c.635-.309 1.546-.577 2.734-.805 1.604-.301 2.714-.582 3.333-.842v-.342c0-.66-.163-1.127-.488-1.404-.326-.285-.94-.427-1.844-.427-.61 0-1.086.122-1.428.366-.342.236-.618.655-.83 1.257zm4.59 2.783c-.439.147-1.135.322-2.087.525-.953.204-1.575.403-1.868.599-.448.317-.671.72-.671 1.208 0 .48.179.895.537 1.245.358.35.813.525 1.367.525.618 0 1.208-.204 1.77-.61.415-.31.688-.688.818-1.136.089-.293.134-.85.134-1.672v-.684zm6.763-8.496v-3.174h3.43v3.174h-3.43zm0 14.722V16.036h3.43V29h-3.43zm6.958 0V11.105h3.43V29h-3.43zm14.465-4.126l3.418.574c-.439 1.253-1.135 2.21-2.087 2.868-.944.651-2.129.977-3.553.977-2.254 0-3.922-.736-5.005-2.21-.854-1.18-1.281-2.669-1.281-4.467 0-2.149.561-3.83 1.684-5.042 1.123-1.22 2.543-1.83 4.261-1.83 1.928 0 3.45.638 4.565 1.916 1.115 1.27 1.648 3.218 1.599 5.847h-8.594c.025 1.017.301 1.81.83 2.38.529.562 1.189.843 1.978.843.537 0 .989-.147 1.355-.44.366-.293.643-.765.83-1.416zm.195-3.467c-.024-.993-.28-1.745-.769-2.258-.488-.52-1.082-.781-1.782-.781-.749 0-1.367.272-1.855.818-.489.545-.729 1.285-.721 2.221h5.127zM167.441 29h-3.43V16.036h3.186v1.843c.546-.87 1.034-1.444 1.465-1.72.44-.277.936-.416 1.489-.416.782 0 1.534.216 2.259.647l-1.062 2.99c-.578-.373-1.115-.56-1.612-.56-.48 0-.887.134-1.22.402-.334.26-.599.737-.794 1.428-.187.692-.281 2.14-.281 4.346V29z" fill="#292929"/><path d="M31 1L0 21.872l11.923 5.218L29.57 3.372 16.215 28.987 26.231 38 31 1z" fill="#027FC2"/></svg>