<svg width="173" height="40" viewBox="0 0 173 40" fill="none" xmlns="http://www.w3.org/2000/svg">
<path d="M36 5L7 24.7436L18.1538 29.6795L34.6615 7.24359L22.1692 31.4744L31.5385 40L36 5Z" fill="#EDF6FB"/>
<path d="M40.9033 23.1772L44.4189 22.8354C44.6305 24.0155 45.0578 24.8822 45.7007 25.4355C46.3517 25.9889 47.2266 26.2656 48.3252 26.2656C49.4889 26.2656 50.3638 26.0215 50.9497 25.5332C51.5438 25.0368 51.8408 24.459 51.8408 23.7998C51.8408 23.3766 51.7147 23.0186 51.4624 22.7256C51.2183 22.4245 50.7869 22.1641 50.1685 21.9443C49.7453 21.7979 48.7809 21.5374 47.2754 21.1631C45.3385 20.6829 43.9795 20.0929 43.1982 19.3931C42.0996 18.4084 41.5503 17.208 41.5503 15.792C41.5503 14.8805 41.8066 14.0301 42.3193 13.2407C42.8402 12.4432 43.5848 11.8369 44.5532 11.4219C45.5298 11.0068 46.7057 10.7993 48.0811 10.7993C50.3271 10.7993 52.0158 11.2917 53.147 12.2764C54.2863 13.2611 54.8844 14.5754 54.9414 16.2192L51.3281 16.3779C51.1735 15.4583 50.8398 14.7992 50.3271 14.4004C49.8226 13.9935 49.0617 13.79 48.0444 13.79C46.9946 13.79 46.1727 14.0057 45.5786 14.437C45.1961 14.7137 45.0049 15.084 45.0049 15.5479C45.0049 15.971 45.1839 16.3332 45.542 16.6343C45.9977 17.0168 47.1045 17.4155 48.8623 17.8306C50.6201 18.2456 51.9181 18.6769 52.7563 19.1245C53.6027 19.564 54.2619 20.1702 54.7339 20.9434C55.214 21.7083 55.4541 22.6564 55.4541 23.7876C55.4541 24.813 55.1693 25.7733 54.5996 26.6685C54.0299 27.5636 53.2243 28.231 52.1826 28.6704C51.141 29.1017 49.8429 29.3174 48.2886 29.3174C46.0262 29.3174 44.2887 28.7965 43.0762 27.7549C41.8636 26.7051 41.1393 25.1792 40.9033 23.1772ZM61.0327 19.9912L57.9199 19.4297C58.2699 18.1764 58.8721 17.2487 59.7266 16.6465C60.5811 16.0443 61.8506 15.7432 63.5352 15.7432C65.0651 15.7432 66.2044 15.9263 66.9531 16.2925C67.7018 16.6506 68.2267 17.1104 68.5278 17.6719C68.8371 18.2253 68.9917 19.2466 68.9917 20.7358L68.9551 24.7397C68.9551 25.8791 69.008 26.7214 69.1138 27.2666C69.2277 27.8037 69.4352 28.3815 69.7363 29H66.3428C66.2533 28.7721 66.1434 28.4344 66.0132 27.9868C65.9562 27.7834 65.9155 27.6491 65.8911 27.584C65.3052 28.1536 64.6785 28.5809 64.0112 28.8657C63.3439 29.1506 62.6318 29.293 61.875 29.293C60.5404 29.293 59.4865 28.9308 58.7134 28.2065C57.9484 27.4823 57.5659 26.5667 57.5659 25.46C57.5659 24.7275 57.7409 24.0765 58.0908 23.5068C58.4408 22.929 58.929 22.4896 59.5557 22.1885C60.1904 21.8792 61.1019 21.6107 62.29 21.3828C63.8932 21.0817 65.0041 20.8009 65.6226 20.5405V20.1987C65.6226 19.5396 65.4598 19.0716 65.1343 18.7949C64.8088 18.5101 64.1943 18.3677 63.291 18.3677C62.6807 18.3677 62.2046 18.4897 61.8628 18.7339C61.521 18.9699 61.2443 19.389 61.0327 19.9912ZM65.6226 22.7744C65.1831 22.9209 64.4873 23.0959 63.5352 23.2993C62.583 23.5028 61.9604 23.7021 61.6675 23.8975C61.2199 24.2148 60.9961 24.6177 60.9961 25.106C60.9961 25.5861 61.1751 26.0011 61.5332 26.3511C61.8913 26.701 62.347 26.876 62.9004 26.876C63.5189 26.876 64.1089 26.6725 64.6704 26.2656C65.0854 25.9564 65.3581 25.578 65.4883 25.1304C65.5778 24.8374 65.6226 24.2799 65.6226 23.458V22.7744ZM72.0679 29.8545L75.9863 30.3306C76.0514 30.7863 76.202 31.0996 76.438 31.2705C76.7635 31.5146 77.2762 31.6367 77.9761 31.6367C78.8713 31.6367 79.5426 31.5024 79.9902 31.2339C80.2913 31.0549 80.5192 30.766 80.6738 30.3672C80.7796 30.0824 80.8325 29.5575 80.8325 28.7925V26.9004C79.8071 28.3001 78.5132 29 76.9507 29C75.2091 29 73.8298 28.2635 72.8125 26.7905C72.015 25.6268 71.6162 24.1782 71.6162 22.4448C71.6162 20.272 72.137 18.6118 73.1787 17.4644C74.2285 16.3169 75.5306 15.7432 77.085 15.7432C78.6882 15.7432 80.0106 16.4471 81.0522 17.855V16.0361H84.2627V27.6694C84.2627 29.1994 84.1366 30.3428 83.8843 31.0996C83.632 31.8564 83.278 32.4505 82.8223 32.8818C82.3665 33.3132 81.7562 33.6509 80.9912 33.895C80.2344 34.1392 79.2741 34.2612 78.1104 34.2612C75.9131 34.2612 74.3547 33.8828 73.4351 33.126C72.5155 32.3773 72.0557 31.4251 72.0557 30.2695C72.0557 30.1556 72.0597 30.0173 72.0679 29.8545ZM75.1318 22.2495C75.1318 23.6248 75.3963 24.634 75.9253 25.2769C76.4624 25.9116 77.1216 26.229 77.9028 26.229C78.741 26.229 79.4491 25.9035 80.0269 25.2524C80.6047 24.5933 80.8936 23.6208 80.8936 22.335C80.8936 20.9922 80.6169 19.9953 80.0635 19.3442C79.5101 18.6932 78.8102 18.3677 77.9639 18.3677C77.1419 18.3677 76.4624 18.6891 75.9253 19.332C75.3963 19.9668 75.1318 20.9393 75.1318 22.2495ZM95.1758 24.874L98.5938 25.4478C98.1543 26.701 97.4585 27.6572 96.5063 28.3164C95.5623 28.9674 94.3783 29.293 92.9541 29.293C90.6999 29.293 89.0316 28.5565 87.9492 27.0835C87.0947 25.9035 86.6675 24.4142 86.6675 22.6157C86.6675 20.4673 87.229 18.7868 88.3521 17.5742C89.4751 16.3535 90.8952 15.7432 92.6123 15.7432C94.541 15.7432 96.0628 16.382 97.1777 17.6597C98.2926 18.9292 98.8257 20.8783 98.7769 23.5068H90.1831C90.2075 24.5241 90.4842 25.3175 91.0132 25.8872C91.5422 26.4487 92.2013 26.7295 92.9907 26.7295C93.5278 26.7295 93.9795 26.583 94.3457 26.29C94.7119 25.9971 94.9886 25.5251 95.1758 24.874ZM95.3711 21.4072C95.3467 20.4144 95.0903 19.6616 94.6021 19.1489C94.1138 18.6281 93.5197 18.3677 92.8198 18.3677C92.0711 18.3677 91.4526 18.6403 90.9644 19.1855C90.4761 19.7308 90.236 20.4714 90.2441 21.4072H95.3711ZM101.56 29V11.1045H106.968L110.215 23.3115L113.425 11.1045H118.845V29H115.488V14.9131L111.936 29H108.457L104.917 14.9131V29H101.56ZM124.973 19.9912L121.86 19.4297C122.21 18.1764 122.812 17.2487 123.667 16.6465C124.521 16.0443 125.791 15.7432 127.476 15.7432C129.006 15.7432 130.145 15.9263 130.894 16.2925C131.642 16.6506 132.167 17.1104 132.468 17.6719C132.778 18.2253 132.932 19.2466 132.932 20.7358L132.896 24.7397C132.896 25.8791 132.948 26.7214 133.054 27.2666C133.168 27.8037 133.376 28.3815 133.677 29H130.283C130.194 28.7721 130.084 28.4344 129.954 27.9868C129.897 27.7834 129.856 27.6491 129.832 27.584C129.246 28.1536 128.619 28.5809 127.952 28.8657C127.284 29.1506 126.572 29.293 125.815 29.293C124.481 29.293 123.427 28.9308 122.654 28.2065C121.889 27.4823 121.506 26.5667 121.506 25.46C121.506 24.7275 121.681 24.0765 122.031 23.5068C122.381 22.929 122.869 22.4896 123.496 22.1885C124.131 21.8792 125.042 21.6107 126.23 21.3828C127.834 21.0817 128.944 20.8009 129.563 20.5405V20.1987C129.563 19.5396 129.4 19.0716 129.075 18.7949C128.749 18.5101 128.135 18.3677 127.231 18.3677C126.621 18.3677 126.145 18.4897 125.803 18.7339C125.461 18.9699 125.185 19.389 124.973 19.9912ZM129.563 22.7744C129.124 22.9209 128.428 23.0959 127.476 23.2993C126.523 23.5028 125.901 23.7021 125.608 23.8975C125.16 24.2148 124.937 24.6177 124.937 25.106C124.937 25.5861 125.116 26.0011 125.474 26.3511C125.832 26.701 126.287 26.876 126.841 26.876C127.459 26.876 128.049 26.6725 128.611 26.2656C129.026 25.9564 129.299 25.578 129.429 25.1304C129.518 24.8374 129.563 24.2799 129.563 23.458V22.7744ZM136.326 14.2783V11.1045H139.756V14.2783H136.326ZM136.326 29V16.0361H139.756V29H136.326ZM143.284 29V11.1045H146.714V29H143.284ZM157.749 24.874L161.167 25.4478C160.728 26.701 160.032 27.6572 159.08 28.3164C158.136 28.9674 156.951 29.293 155.527 29.293C153.273 29.293 151.605 28.5565 150.522 27.0835C149.668 25.9035 149.241 24.4142 149.241 22.6157C149.241 20.4673 149.802 18.7868 150.925 17.5742C152.048 16.3535 153.468 15.7432 155.186 15.7432C157.114 15.7432 158.636 16.382 159.751 17.6597C160.866 18.9292 161.399 20.8783 161.35 23.5068H152.756C152.781 24.5241 153.057 25.3175 153.586 25.8872C154.115 26.4487 154.775 26.7295 155.564 26.7295C156.101 26.7295 156.553 26.583 156.919 26.29C157.285 25.9971 157.562 25.5251 157.749 24.874ZM157.944 21.4072C157.92 20.4144 157.664 19.6616 157.175 19.1489C156.687 18.6281 156.093 18.3677 155.393 18.3677C154.644 18.3677 154.026 18.6403 153.538 19.1855C153.049 19.7308 152.809 20.4714 152.817 21.4072H157.944ZM167.441 29H164.011V16.0361H167.197V17.8794C167.743 17.0086 168.231 16.4349 168.662 16.1582C169.102 15.8815 169.598 15.7432 170.151 15.7432C170.933 15.7432 171.685 15.9588 172.41 16.3901L171.348 19.3809C170.77 19.0065 170.233 18.8193 169.736 18.8193C169.256 18.8193 168.849 18.9536 168.516 19.2222C168.182 19.4826 167.917 19.9587 167.722 20.6504C167.535 21.3421 167.441 22.7907 167.441 24.9961V29Z" fill="#292929"/>
<path d="M31 1L0 21.8718L11.9231 27.0897L29.5692 3.37179L16.2154 28.9872L26.2308 38L31 1Z" fill="#027FC2"/>
</svg>
