<?xml version="1.0" encoding="utf-8"?>
<svg xmlns="http://www.w3.org/2000/svg" xmlns:xlink="http://www.w3.org/1999/xlink">
  <symbol id="help" xmlns="http://www.w3.org/2000/svg" viewBox="0 0 476.583 476.583">
    <path d="M476.583,262.835c0-32.208-25.811-58.375-57.815-59.259c-2.33-3.642-5.623-6.553-9.505-8.495 c5.14-76.723-61.653-157.01-144.843-167.175c-10.731-1.864-15.576-1.568-26.105-2.29C115.523,29.172,62.645,132.404,67.288,195.135 c-3.851,1.942-7.097,4.829-9.411,8.433C25.841,204.421,0,230.604,0,262.835c0,32.224,25.841,58.407,57.878,59.261 c4.239,6.631,11.632,11.057,20.079,11.057c13.169,0,23.853-10.677,23.853-23.853v-92.935c0-8.045-4.006-15.126-10.109-19.444 c10.295-57.87,62.893-122.232,146.613-123.598c5.063,0.364,15.964,0.278,20.562,1.498c41.649,3.844,111.531,44.663,125.99,122.162 c-6.056,4.325-10.031,11.376-10.031,19.382v92.935c0,10.017,6.18,18.55,14.922,22.091v10.117c0,26.415-17.842,49.594-43.373,56.364 l-72.042,19.078c-3.882-5.148-9.767-8.687-16.74-8.687c-11.787,0-21.353,9.565-21.353,21.352c0,11.803,9.567,21.353,21.353,21.353 c10.855,0,19.428-8.183,20.81-18.644l72.042-19.078c32.502-8.619,55.206-34.948,55.206-81.249 c5.467-1.678,10.095-5.187,13.108-9.909C450.772,321.202,476.583,295.035,476.583,262.835z" />
    <path d="M184.443,293.405h-23.201v-0.256c13.402-11.135,29.63-24.537,29.63-41.953c0-37.783-60.207-27.783-53.888-11.88 c1.724,4.635,6.305,5.933,9.831,4.217c11.213-5.475,24.739-3.161,24.739,9.317c-0.374,13.767-20.546,29.173-36.448,43.561 c-2.392,2.166-3.013,12.889,2.702,12.889h46.635C194.956,309.299,194.956,293.405,184.443,293.405z" />
    <path d="M247.741,309.299c10.343,0,9.147-9.497,9.147-19.706c13.914,0,13.572-14.498,0-14.498v-44.421 c0-2.222-1.802-4.023-4.023-4.023c-25.653,0-14.861-7.663-49.166,47.544c-2.794,4.542-3.354,15.398,2.283,15.398h32.596 C238.578,299.78,237.383,309.299,247.741,309.299z M220.021,275.095v-0.256l11.057-18.052c2.796-5.211,4.969-10.041,7.625-15.382 h0.512c-0.854,12.175-0.636,15.264-0.636,33.69H220.021z" />
    <path d="M278.038,233.33v66.241c0,12.842,19.46,12.897,19.46,0v-26.129h31.913v26.191c0,12.75,19.334,12.796,19.334,0v-66.364 c0-5.343-4.332-9.667-9.659-9.667c-13.278,0-9.675,19.31-9.675,32.93h-31.913V233.33 C297.497,220.432,278.038,220.487,278.038,233.33z" />
  </symbol>
  <symbol id="abtest" xmlns="http://www.w3.org/2000/svg" viewBox="0 0 436.905 436.905">
    <path d="M296.311,3.412H140.595c-13.532,0-24.542,11.01-24.542,24.542v155.716c0,13.532,11.01,24.542,24.542,24.542h155.716 c13.532,0,24.542-11.01,24.542-24.542V27.954C320.853,14.422,309.844,3.412,296.311,3.412z M307.2,183.671 c0,6.004-4.885,10.889-10.889,10.889H140.595c-6.004,0-10.888-4.885-10.888-10.889V27.954c0-6.004,4.884-10.889,10.888-10.889 h155.716c6.004,0,10.889,4.884,10.889,10.889V183.671z" />
    <path d="M180.258,228.692H24.542C11.01,228.692,0,239.702,0,253.234v155.716c0,13.532,11.01,24.542,24.542,24.542h155.716 c13.532,0,24.542-11.01,24.542-24.542V253.234C204.8,239.702,193.79,228.692,180.258,228.692z M191.147,408.951 c0,6.004-4.885,10.889-10.889,10.889H24.542c-6.004,0-10.889-4.884-10.889-10.889V253.234c0-6.004,4.884-10.889,10.889-10.889 h155.716c6.004,0,10.889,4.885,10.889,10.889V408.951z" />
    <path d="M412.363,228.692H256.649c-13.532,0-24.542,11.01-24.542,24.542v155.716c0,13.532,11.01,24.542,24.542,24.542h155.716 c13.532,0,24.542-11.01,24.54-24.542V253.234C436.905,239.702,425.895,228.692,412.363,228.692z M423.252,408.951 c0,6.004-4.884,10.889-10.889,10.889H256.649c-6.004,0-10.888-4.884-10.888-10.889V253.234c0-6.004,4.884-10.889,10.888-10.889 h155.715c6.004,0,10.889,4.885,10.889,10.889V408.951z" />
    <path d="M265.738,164.684L221.365,55.457c-1.046-2.575-3.546-4.258-6.325-4.258s-5.279,1.683-6.323,4.258l-44.373,109.227 c-1.42,3.492,0.261,7.474,3.755,8.893c3.492,1.42,7.475-0.261,8.893-3.755l38.048-93.658l38.048,93.657 c1.077,2.652,3.63,4.26,6.327,4.26c0.857,0,1.725-0.162,2.568-0.503C265.475,172.159,267.156,168.177,265.738,164.684z" />
    <rect x="184.32" y="126.293" width="61.44" height="13.653" />
    <path d="M68.267,276.479c-3.77,0-6.827,3.057-6.827,6.827v102.4c0,3.77,3.057,6.827,6.827,6.827s6.827-3.057,6.827-6.827v-102.4 C75.093,279.536,72.037,276.479,68.267,276.479z" />
    <path d="M102.069,276.479H68.267c-3.77,0-6.827,3.057-6.827,6.827s3.057,6.827,6.827,6.827h33.802 c11.476,0,20.811,7.658,20.809,17.07c0,6.48-4.64,12.513-11.841,15.375c-1.872,0.751-3.854,1.256-5.898,1.505 c-1,0.123-2.038,0.183-3.07,0.183c-3.77,0-6.827,3.057-6.827,6.827s3.057,6.827,6.827,6.827c1.594,0,3.197-0.096,4.731-0.285 c3.21-0.391,6.345-1.191,9.3-2.376c12.413-4.936,20.434-15.952,20.434-28.064C136.533,290.259,121.073,276.479,102.069,276.479z" />
    <path d="M116.692,324.266H68.267c-3.77,0-6.827,3.057-6.827,6.827s3.057,6.827,6.827,6.827h48.425 c10.94,0,19.842,9.189,19.842,20.483c0,11.291-8.9,20.477-19.842,20.477H68.267c-3.77,0-6.827,3.057-6.827,6.827 s3.057,6.827,6.827,6.827h48.425c18.47,0,33.495-15.314,33.495-34.138C150.187,339.576,135.161,324.266,116.692,324.266z" />
    <path d="M380.752,369.158c-2.384-2.918-6.685-3.352-9.605-0.966c-8.433,6.891-19.086,10.687-29.998,10.687 c-26.249,0-47.602-21.436-47.602-47.787c0-26.349,21.354-47.787,47.602-47.787c9.965,0,19.499,3.053,27.568,8.83 c3.065,2.195,7.33,1.488,9.525-1.577s1.488-7.33-1.577-9.525c-10.402-7.446-22.683-11.382-35.516-11.382 c-33.777,0-61.256,27.563-61.256,61.44c0,33.877,27.479,61.44,61.256,61.44c14.053,0,27.774-4.89,38.637-13.769 C382.706,376.377,383.138,372.078,380.752,369.158z" />
  </symbol>
  <symbol id="stat" xmlns="http://www.w3.org/2000/svg" viewBox="0 0 1000 1000">
    <path d="M962.8,863.2H64.5V109.5c0-15-12.2-27.2-27.2-27.2c-15,0-27.2,12.2-27.2,27.2v780.9c0,15,12.2,27.2,27.2,27.2h925.5c15,0,27.2-12.2,27.2-27.2C990,875.4,977.8,863.2,962.8,863.2z" />
    <path d="M117.8,744.7c4.9,3.7,10.7,5.5,16.3,5.5c8.3,0,16.4-3.8,21.8-10.9l201.3-267.7l190.9,125.6c9.8,6.5,22.7,5.9,31.9-1.4l360-286.5c11.8-9.4,13.7-26.5,4.3-38.3c-9.4-11.8-26.5-13.7-38.3-4.3L561.5,540.8L365.8,412c-12-7.9-28.1-5.1-36.7,6.4L112.4,706.5C103.3,718.6,105.7,735.6,117.8,744.7z" />
  </symbol>
  <symbol id="chart" viewBox="0 0 24 24">
    <path style="text-indent:0;text-align:start;line-height:normal;text-transform:none;block-progression:tb;-inkscape-font-specification:Bitstream Vera Sans" d="M 17 2 L 17 22 L 21 22 L 21 2 L 17 2 z M 12 6 L 12 22 L 16 22 L 16 6 L 12 6 z M 7 10 L 7 22 L 11 22 L 11 10 L 7 10 z M 2 14 L 2 22 L 6 22 L 6 14 L 2 14 z" />
  </symbol>
  <symbol viewBox="0 0 512 512" id="analytics" xmlns="http://www.w3.org/2000/svg">
    <path d="M394.557 268.864h-.011c-3.983 0-7.386 2.902-7.978 6.84-9.669 64.341-65.926 113.636-133.215 112.312-69.547-1.369-126.597-57.279-129.293-126.787-2.918-75.18 57.396-137.271 131.94-137.271 66.939 0 122.403 50.07 130.909 114.725.526 3.999 3.964 6.971 7.997 6.971 4.87 0 8.659-4.281 8.023-9.109-9.607-72.948-72.463-129.351-148.126-128.749-81.774.649-148.012 68.292-147.002 150.063.999 80.871 67.097 146.352 148.2 146.352 74.226 0 135.872-54.849 146.56-126.144.727-4.855-3.095-9.203-8.004-9.203z" />
    <path d="M497.995 440.831l-81.221-81.221c19.321-29.879 30.553-65.456 30.553-103.609 0-105.498-85.828-191.326-191.326-191.326S64.674 150.502 64.674 256 150.502 447.326 256 447.326c38.153 0 73.73-11.232 103.609-30.553l81.221 81.221c7.635 7.635 17.785 11.84 28.581 11.84 10.797 0 20.948-4.205 28.583-11.84 15.761-15.759 15.761-41.403.001-57.163zM256 431.158c-96.583 0-175.158-78.575-175.158-175.158S159.417 80.842 256 80.842 431.158 159.417 431.158 256 352.583 431.158 256 431.158zm230.562 55.404c-4.581 4.581-10.671 7.103-17.149 7.103s-12.568-2.523-17.149-7.103l-79.277-79.277a193.024 193.024 0 0 0 34.299-34.299l79.277 79.277c9.454 9.456 9.454 24.842-.001 34.299zM61.979 183.242H18.863a8.084 8.084 0 0 0 0 16.168h43.116a8.084 8.084 0 0 0 0-16.168z" />
    <path d="M353.01 183.242h-46.94c-3.529-12.426-14.971-21.558-28.512-21.558-13.542 0-24.983 9.132-28.513 21.558h-90.056a8.084 8.084 0 0 0 0 16.168h90.056c3.529 12.426 14.971 21.558 28.513 21.558 13.542 0 24.983-9.132 28.512-21.558h46.94a8.084 8.084 0 0 0 0-16.168zM277.558 204.8c-7.43 0-13.474-6.044-13.474-13.474 0-7.43 6.044-13.474 13.474-13.474s13.474 6.044 13.474 13.474c0 7.43-6.044 13.474-13.474 13.474zm204.8-21.558h-32.337a8.084 8.084 0 0 0 0 16.168h32.337a8.084 8.084 0 0 0 0-16.168zM353.01 312.589H241.397c-3.529-12.426-14.971-21.558-28.512-21.558-16.345 0-29.642 13.297-29.642 29.642s13.297 29.642 29.642 29.642c13.542 0 24.983-9.132 28.512-21.558H353.01a8.084 8.084 0 0 0 0-16.168zm-140.126 21.558c-7.43 0-13.474-6.044-13.474-13.474s6.044-13.474 13.474-13.474 13.474 6.044 13.474 13.474-6.044 13.474-13.474 13.474zm258.695-21.558h-21.558a8.084 8.084 0 0 0 0 16.168h21.558a8.084 8.084 0 0 0 0-16.168zM191.326 474.274H58.155c-3.529-12.426-14.971-21.558-28.513-21.558C13.297 452.716 0 466.013 0 482.358S13.297 512 29.642 512c13.542 0 24.983-9.132 28.513-21.558h133.172a8.084 8.084 0 1 0-.001-16.168zM29.642 495.832c-7.43 0-13.474-6.044-13.474-13.474s6.044-13.474 13.474-13.474c7.43 0 13.474 6.044 13.474 13.474s-6.044 13.474-13.474 13.474zM471.579 0c-19.521 0-35.852 13.909-39.607 32.337h-89.74a8.084 8.084 0 0 0 0 16.168h89.74c3.755 18.428 20.087 32.337 39.607 32.337C493.868 80.842 512 62.71 512 40.421S493.868 0 471.579 0zm0 64.674c-13.373 0-24.253-10.879-24.253-24.253 0-13.373 10.879-24.253 24.253-24.253 13.373 0 24.253 10.879 24.253 24.253 0 13.373-10.88 24.253-24.253 24.253z" />
  </symbol>
  <symbol viewBox="0 0 482.9 482.9" id="avatar" xmlns="http://www.w3.org/2000/svg">
    <path d="M239.7 260.2h3.2c29.3-.5 53-10.8 70.5-30.5 38.5-43.4 32.1-117.8 31.4-124.9-2.5-53.3-27.7-78.8-48.5-90.7C280.8 5.2 262.7.4 242.5 0h-1.7c-11.1 0-32.9 1.8-53.8 13.7-21 11.9-46.6 37.4-49.1 91.1-.7 7.1-7.1 81.5 31.4 124.9 17.4 19.7 41.1 30 70.4 30.5zm-75.1-152.9c0-.3.1-.6.1-.8 3.3-71.7 54.2-79.4 76-79.4h1.2c27 .6 72.9 11.6 76 79.4 0 .3 0 .6.1.8.1.7 7.1 68.7-24.7 104.5-12.6 14.2-29.4 21.2-51.5 21.4h-1c-22-.2-38.9-7.2-51.4-21.4-31.7-35.6-24.9-103.9-24.8-104.5z" />
    <path d="M446.8 383.6v-.3c0-.8-.1-1.6-.1-2.5-.6-19.8-1.9-66.1-45.3-80.9-.3-.1-.7-.2-1-.3-45.1-11.5-82.6-37.5-83-37.8-6.1-4.3-14.5-2.8-18.8 3.3-4.3 6.1-2.8 14.5 3.3 18.8 1.7 1.2 41.5 28.9 91.3 41.7 23.3 8.3 25.9 33.2 26.6 56 0 .9 0 1.7.1 2.5.1 9-.5 22.9-2.1 30.9-16.2 9.2-79.7 41-176.3 41-96.2 0-160.1-31.9-176.4-41.1-1.6-8-2.3-21.9-2.1-30.9 0-.8.1-1.6.1-2.5.7-22.8 3.3-47.7 26.6-56 49.8-12.8 89.6-40.6 91.3-41.7 6.1-4.3 7.6-12.7 3.3-18.8-4.3-6.1-12.7-7.6-18.8-3.3-.4.3-37.7 26.3-83 37.8-.4.1-.7.2-1 .3-43.4 14.9-44.7 61.2-45.3 80.9 0 .9 0 1.7-.1 2.5v.3c-.1 5.2-.2 31.9 5.1 45.3 1 2.6 2.8 4.8 5.2 6.3 3 2 74.9 47.8 195.2 47.8s192.2-45.9 195.2-47.8c2.3-1.5 4.2-3.7 5.2-6.3 5-13.3 4.9-40 4.8-45.2z" />
  </symbol>
  <symbol viewBox="0 0 612 612" id="clock" xmlns="http://www.w3.org/2000/svg">
    <path d="M587.572 186.881c-32.266-75.225-87.096-129.934-162.949-162.285C386.711 8.427 346.992.168 305.497.168c-41.488 0-80.914 8.181-118.784 24.428-75.225 32.265-130.298 86.939-162.621 162.285C7.895 224.629 0 264.176 0 305.664c0 41.496 7.895 81.371 24.092 119.127 32.323 75.346 87.403 130.348 162.621 162.621 37.877 16.247 77.295 24.42 118.784 24.42 41.489 0 81.214-8.259 119.12-24.42C500.47 555.06 555.3 500.009 587.573 424.791 603.819 386.914 612 347.16 612 305.664c0-41.488-8.174-80.907-24.428-118.783zm-48.848 253.972c-24.021 41.195-56.929 73.876-98.375 98.039-41.195 24.021-86.332 36.135-134.845 36.135-36.47 0-71.27-7.024-104.4-21.415-33.129-14.384-61.733-33.294-85.661-57.215-23.928-23.928-42.973-52.811-57.214-85.997-14.199-33.065-21.08-68.258-21.08-104.735 0-48.52 11.921-93.428 35.807-134.509 23.971-41.231 56.886-73.947 98.039-98.04 41.146-24.092 85.99-36.142 134.502-36.142 48.52 0 93.649 12.121 134.845 36.142 41.446 24.164 74.283 56.879 98.375 98.039 24.092 41.153 36.135 85.99 36.135 134.509 0 48.521-11.964 93.735-36.128 135.189z" />
    <path d="M324.906 302.988V129.659c0-10.372-9.037-18.738-19.41-18.738-9.701 0-18.403 8.366-18.403 18.738v176.005c0 .336.671 1.678.671 2.678-.671 6.024 1.007 11.043 5.019 15.062L392.836 423.45c6.695 6.695 19.073 6.695 25.763 0 7.694-7.695 7.188-18.86 0-26.099l-93.693-94.363z" />
  </symbol>
  <symbol viewBox="0 0 363 363" id="diss" xmlns="http://www.w3.org/2000/svg">
    <path d="M277.73 94.123c0 10.997-8.006 17.685-13.852 22.593-2.214 1.859-6.335 5.251-6.324 6.518.04 4.97-3.956 8.939-8.927 8.939h-.075c-4.936 0-8.958-3.847-8.998-8.792-.079-9.747 7.034-15.584 12.75-20.383 4.485-3.766 7.426-6.416 7.426-8.841 0-4.909-3.994-8.903-8.903-8.903-4.911 0-8.906 3.994-8.906 8.903 0 4.971-4.029 9-9 9s-9-4.029-9-9c0-14.834 12.069-26.903 26.904-26.903 14.836-.001 26.905 12.034 26.905 26.869zm-28.929 46.358c-4.971 0-8.801 4.029-8.801 9v.069c0 4.971 3.831 8.966 8.801 8.966s9-4.064 9-9.035-4.029-9-9-9zM67.392 203.174c-4.971 0-9 4.029-9 9s4.029 9 9 9h.75c4.971 0 9-4.029 9-9s-4.029-9-9-9h-.75zm31.279 0c-4.971 0-9 4.029-9 9s4.029 9 9 9h.749c4.971 0 9-4.029 9-9s-4.029-9-9-9h-.749zM363 59.425v101.301c0 23.985-19.232 43.448-43.217 43.448H203.066c-2.282 0-4.161-.013-5.733-.046-1.647-.034-3.501-.047-4.224.033-.753.5-2.599 2.191-4.378 3.83-.705.649-1.503 1.363-2.364 2.149l-33.022 30.098c-2.634 2.403-6.531 3.025-9.793 1.587-3.262-1.439-5.552-4.669-5.552-8.234v-95.417H43.72c-14.062 0-25.72 11.523-25.72 25.583v101.301c0 14.061 11.659 25.116 25.72 25.116h130.374c2.245 0 4.345 1.031 6.003 2.545L207 317.523v-85.539c0-4.971 4.029-9 9-9s9 4.029 9 9v105.938c0 3.565-2.04 6.747-5.303 8.186-1.167.515-2.339.718-3.566.718-2.204 0-4.378-.905-6.069-2.449l-39.457-36.204H43.72c-23.986 0-43.72-19.13-43.72-43.116v-101.3c0-23.985 19.734-43.583 43.72-43.583H138V59.425c0-23.986 19.885-43.251 43.871-43.251h137.913c23.984 0 43.216 19.265 43.216 43.251zm-18 0c0-14.061-11.157-25.251-25.217-25.251H181.871C167.81 34.174 156 45.364 156 59.425v153.767l18.095-16.353c.838-.765 1.777-1.465 2.462-2.097 8.263-7.614 10.377-8.831 21.155-8.609 1.47.031 3.221.042 5.354.042h116.717c14.06 0 25.217-11.388 25.217-25.448V59.425z" />
  </symbol>
  <symbol viewBox="0 0 512 512" id="doc" xmlns="http://www.w3.org/2000/svg">
    <path d="M447.933 103.629c-.034-3.076-1.224-6.09-3.485-8.352L352.683 3.511l-.011-.008A11.942 11.942 0 0 0 344.206 0H89.278C75.361 0 64.04 11.32 64.04 25.237v461.525c0 13.916 11.32 25.237 25.237 25.237h333.444c13.916 0 25.237-11.32 25.237-25.237V103.753c.002-.044-.021-.081-.025-.124zm-91.739-62.698l50.834 50.834h-49.572a1.265 1.265 0 0 1-1.262-1.262V40.931zm67.789 445.832c0 .695-.566 1.261-1.261 1.261H89.278a1.263 1.263 0 0 1-1.261-1.261V25.237c0-.695.566-1.261 1.261-1.261h242.94v66.527c0 13.916 11.322 25.239 25.239 25.239h66.527v371.021z" />
    <path d="M362.088 164.014H149.912c-6.62 0-11.988 5.367-11.988 11.988 0 6.62 5.368 11.988 11.988 11.988h212.175c6.62 0 11.988-5.368 11.988-11.988.001-6.621-5.368-11.988-11.987-11.988zm0 72.339H149.912c-6.62 0-11.988 5.368-11.988 11.988 0 6.62 5.368 11.988 11.988 11.988h212.175c6.62 0 11.988-5.368 11.988-11.988.001-6.62-5.368-11.988-11.987-11.988zm0 72.338H149.912c-6.62 0-11.988 5.368-11.988 11.988 0 6.621 5.368 11.988 11.988 11.988h212.175c6.62 0 11.988-5.367 11.988-11.988.001-6.619-5.368-11.988-11.987-11.988zM256 381.031H149.912c-6.62 0-11.988 5.368-11.988 11.988 0 6.621 5.368 11.988 11.988 11.988H256c6.62 0 11.988-5.367 11.988-11.988 0-6.621-5.368-11.988-11.988-11.988z" />
  </symbol>
  <symbol viewBox="0 0 451.847 451.847" id="down" xmlns="http://www.w3.org/2000/svg">
    <path d="M225.923 354.706c-8.098 0-16.195-3.092-22.369-9.263L9.27 151.157c-12.359-12.359-12.359-32.397 0-44.751 12.354-12.354 32.388-12.354 44.748 0l171.905 171.915 171.906-171.909c12.359-12.354 32.391-12.354 44.744 0 12.365 12.354 12.365 32.392 0 44.751L248.292 345.449c-6.177 6.172-14.274 9.257-22.369 9.257z" />
  </symbol>
  <symbol viewBox="0 0 48.625 48.625" id="earth" xmlns="http://www.w3.org/2000/svg">
    <path d="M35.432 10.815l.047.361-.541.112-.072.769h.648l.862-.083.445-.529-.473-.184-.259-.298-.389-.63-.186-.891-.731.149-.205.314v.354l.352.241z" />
    <path d="M34.809 11.111l.039-.482-.429-.185-.6.139-.445.714v.463h.519zm-12.35 2.047l-.132.34h-.639v.33h.152l.022.162.392-.033.245-.152.064-.307.317-.027.125-.258-.291-.06-.255.005zm-1.647.599l-.025.323.463-.039.048-.324-.278-.219z" />
    <path d="M48.619 24.061a24.552 24.552 0 0 0-.11-2.112 24.165 24.165 0 0 0-1.609-6.62c-.062-.155-.119-.312-.185-.465a24.341 24.341 0 0 0-4.939-7.441 24.19 24.19 0 0 0-1.11-1.086A24.22 24.22 0 0 0 24.312 0c-6.345 0-12.126 2.445-16.46 6.44a24.6 24.6 0 0 0-2.78 3.035A24.18 24.18 0 0 0 0 24.312c0 13.407 10.907 24.313 24.313 24.313 9.43 0 17.617-5.4 21.647-13.268a24.081 24.081 0 0 0 2.285-6.795c.245-1.381.379-2.801.379-4.25.001-.084-.004-.167-.005-.251zm-4.576-9.717l.141-.158c.185.359.358.724.523 1.094l-.23-.009-.434.06v-.987zm-3.513-4.242l.004-1.086c.382.405.75.822 1.102 1.254l-.438.652-1.531-.014-.096-.319.959-.487zM11.202 7.403v-.041h.487l.042-.167h.797v.348l-.229.306h-1.098l.001-.446zm.778 1.085s.487-.083.529-.083 0 .486 0 .486l-1.098.069-.209-.25.778-.222zm33.612 9.651h-1.779l-1.084-.807-1.141.111v.696h-.361l-.39-.278-1.976-.501v-1.28l-2.504.195-.776.417h-.994l-.487-.049-1.207.67v1.261l-2.467 1.78.205.76h.5l-.131.724-.352.129-.019 1.892 2.132 2.428h.928l.056-.148h1.668l.481-.445h.946l.519.52 1.41.146-.187 1.875 1.565 2.763-.824 1.575.056.742.649.647v1.784l.852 1.146v1.482h.736c-4.096 5.029-10.33 8.25-17.305 8.25C12.009 46.625 2 36.615 2 24.312c0-3.097.636-6.049 1.781-8.732v-.696l.798-.969c.277-.523.574-1.033.891-1.53l.036.405-.926 1.125a22.14 22.14 0 0 0-.798 1.665v1.27l.927.446v1.765l.889 1.517.723.111.093-.52-.853-1.316-.167-1.279h.5l.211 1.316 1.233 1.799-.318.581.784 1.199 1.947.482v-.315l.779.111-.074.556.612.112.945.258 1.335 1.521 1.705.129.167 1.391-1.167.816-.055 1.242-.167.76 1.688 2.113.129.724s.612.166.687.166c.074 0 1.372.983 1.372.983v3.819l.463.13-.315 1.762.779 1.039-.144 1.746 1.029 1.809 1.321 1.154 1.328.024.13-.427-.976-.822.056-.408.175-.5.037-.51-.66-.02-.333-.418.548-.527.074-.398-.612-.175.036-.37.872-.132 1.326-.637.445-.816 1.391-1.78-.316-1.392.427-.741 1.279.039.861-.682.278-2.686.955-1.213.167-.779-.871-.279-.575-.943-1.965-.02-1.558-.594-.074-1.111-.52-.909-1.409-.021-.814-1.278-.723-.353-.037.39-1.316.078-.482-.671-1.373-.279-1.131 1.307-1.78-.302-.129-2.006-1.299-.222.521-.984-.149-.565-1.707 1.141-1.074-.131-.383-.839.234-.865.592-1.091 1.363-.69 2.632-.001-.007.803.946.44-.075-1.372.682-.686 1.376-.904.094-.636 1.372-1.428 1.459-.808-.129-.106.988-.93.362.096.166.208.375-.416.092-.041-.411-.058-.417-.139v-.4l.221-.181h.487l.223.098.193.39.236-.036v-.034l.068.023.684-.105.097-.334.39.098v.362l-.362.249h.001l.053.397 1.239.382.003.015.285-.024.019-.537-.982-.447-.056-.258.815-.278.036-.78-.852-.519-.056-1.315-1.168.574h-.426l.112-1.001-1.59-.375-.658.497v1.516l-1.183.375-.474.988-.514.083v-1.264l-1.112-.154-.556-.362-.224-.819 1.989-1.164.973-.296.098.654.542-.028.042-.329.567-.081.01-.115-.244-.101-.056-.348.697-.059.421-.438.023-.032.005.002.128-.132 1.465-.185.648.55-1.699.905 2.162.51.28-.723h.945l.334-.63-.668-.167v-.797l-2.095-.928-1.446.167-.816.427.056 1.038-.853-.13-.131-.574.817-.742-1.483-.074-.426.129-.185.5.556.094-.111.556-.945.056-.148.37-1.371.038s-.038-.778-.093-.778l1.075-.019.817-.798-.446-.223-.593.576-.984-.056-.593-.816h-1.261l-1.316.983h1.206l.11.353-.313.291 1.335.037.204.482-1.503-.056-.073-.371-.945-.204-.501-.278-1.125.009A22.188 22.188 0 0 1 24.312 2c5.642 0 10.797 2.109 14.73 5.574l-.265.474-1.029.403-.434.471.1.549.531.074.32.8.916-.369.151 1.07h-.276l-.752-.111-.834.14-.807 1.14-1.154.181-.167.988.487.115-.141.635-1.146-.23-1.051.23-.223.585.182 1.228.617.289 1.035-.006.699-.063.213-.556 1.092-1.419.719.147.708-.64.132.5 1.742 1.175-.213.286-.785-.042.302.428.483.106.566-.236-.012-.682.251-.126-.202-.214-1.162-.648-.306-.861h.966l.309.306.832.717.035.867.862.918.321-1.258.597-.326.112 1.029.583.64 1.163-.02c.225.579.427 1.168.604 1.769l-.121.112zm-32.331-7.093l.584-.278.528.126-.182.709-.57.181-.36-.738zm3.099 1.669v.459h-1.334l-.5-.139.125-.32.641-.265h.876v.265h.192zm.614.64v.445l-.334.215-.416.077v-.737h.75zm-.376-.181v-.529l.459.418-.459.111zm.209 1.07v.433l-.319.32h-.709l.111-.486.335-.029.069-.167.513-.071zm-1.766-.889h.737l-.945 1.321-.39-.209.084-.556.514-.556zm3.018.737v.432h-.709l-.194-.28v-.402h.056l.847.25zm-.655-.594l.202-.212.341.212-.273.225-.27-.225zm28.55 5.767l.07-.082c.029.126.06.252.088.38l-.158-.298z" />
    <path d="M3.782 14.884v.696c.243-.568.511-1.122.798-1.665l-.798.969z" />
  </symbol>
  <symbol viewBox="0 0 455.73 455.73" id="fc" xmlns="http://www.w3.org/2000/svg">
    <path d="M0 0v455.73h242.704V279.691h-59.33v-71.864h59.33v-60.353c0-43.893 35.582-79.475 79.475-79.475h62.025v64.622h-44.382c-13.947 0-25.254 11.307-25.254 25.254v49.953h68.521l-9.47 71.864h-59.051V455.73H455.73V0H0z" />
  </symbol>
  <symbol viewBox="0 0 150.223 150.223" id="infinity" xmlns="http://www.w3.org/2000/svg">
    <path d="M115.885 38.631c-21.312 0-35.416 17.425-47.859 32.802-10.631 13.136-20.67 25.54-32.897 25.54-12.709 0-20.512-13.062-20.512-22.426 0-8.682 8.56-21.299 21.976-21.299 13.018 0 19.8 10.419 20.142 10.953a7.307 7.307 0 0 0 10.017 2.395 7.308 7.308 0 0 0 2.438-10.044c-.446-.73-11.167-17.92-32.597-17.92C15.029 38.632 0 57.562 0 74.548c0 17.521 14.427 37.043 35.128 37.043 19.199 0 31.94-15.74 44.259-30.963 11.396-14.078 22.161-27.379 36.498-27.379 8.53 0 14.135 2.894 17.131 8.84 2.596 5.16 2.594 10.999 2.592 13.022 0 1.16-.613 6.978-3.451 12.217-3.236 5.968-7.83 8.746-14.469 8.746-13.369 0-20.592-8.69-23.312-11.963-.707-.852-1.216-1.465-1.896-2.047a7.312 7.312 0 0 0-10.306.795 7.305 7.305 0 0 0 .478 10.014c.132.15.291.347.48.576 3.545 4.266 14.324 17.24 34.553 17.24 24.586 0 32.537-23.973 32.537-35.678.002-7.455-1.394-14.013-4.154-19.496-3.875-7.7-12.259-16.884-30.183-16.884z" />
  </symbol>
  <symbol viewBox="0 0 485.211 485.211" id="mail" xmlns="http://www.w3.org/2000/svg">
    <path d="M485.211 363.906c0 10.637-2.992 20.498-7.785 29.174L324.225 221.67l151.54-132.584c5.895 9.355 9.446 20.344 9.446 32.219v242.601zM242.606 252.793l210.863-184.5c-8.653-4.737-18.397-7.642-28.908-7.642H60.651c-10.524 0-20.271 2.905-28.889 7.642l210.844 184.5zm58.787-11.162l-48.809 42.734a15.145 15.145 0 0 1-9.978 3.729c-3.57 0-7.125-1.242-9.98-3.729l-48.82-42.736L28.667 415.23c9.299 5.834 20.197 9.329 31.983 9.329h363.911c11.784 0 22.687-3.495 31.983-9.329L301.393 241.631zM9.448 89.085C3.554 98.44 0 109.429 0 121.305v242.602c0 10.637 2.978 20.498 7.789 29.174l153.183-171.44L9.448 89.085z" />
  </symbol>
  <symbol viewBox="0 0 511.999 511.999" id="monitor" xmlns="http://www.w3.org/2000/svg">
    <path d="M481.091 27.937H30.909C13.866 27.937 0 41.803 0 58.846v310.819c0 17.043 13.866 30.909 30.909 30.909h154.26v22.49c0 20.617-16.774 37.391-37.391 37.391h-33.997c-6.518 0-11.803 5.284-11.803 11.803 0 6.519 5.285 11.803 11.803 11.803h284.436c6.518 0 11.803-5.284 11.803-11.803 0-6.519-5.285-11.803-11.803-11.803h-33.998c-20.617 0-37.391-16.774-37.391-37.391v-22.489h154.26c17.043 0 30.91-13.866 30.91-30.909V58.846c.002-17.043-13.864-30.909-30.907-30.909zM195.92 460.457c8.046-10.336 12.857-23.308 12.857-37.391v-22.49h94.447v22.49c0 14.083 4.811 27.056 12.857 37.391H195.92zm292.474-90.791c0 4.027-3.276 7.304-7.304 7.304H30.909c-4.027 0-7.304-3.276-7.304-7.304v-62.033h464.789v62.033zm0-85.64H23.606V58.846c0-4.027 3.276-7.304 7.304-7.304h450.18c4.027 0 7.305 3.276 7.305 7.304v225.18z" />
    <circle cx="256.003" cy="342.305" r="12.738" />
    <path d="M276.238 109.254c-4.61-4.609-12.081-4.609-16.693 0l-83.414 83.414c-4.609 4.609-4.609 12.083 0 16.693a11.767 11.767 0 0 0 8.347 3.457c3.022 0 6.041-1.152 8.346-3.457l83.414-83.414c4.609-4.609 4.609-12.083 0-16.693zm49.44 48.339c-4.608-4.609-12.079-4.609-16.692-.001l-33.23 33.228c-4.609 4.61-4.609 12.084 0 16.693a11.765 11.765 0 0 0 8.346 3.457c3.02 0 6.041-1.152 8.346-3.457l33.23-33.228c4.609-4.609 4.609-12.083 0-16.692z" />
  </symbol>
  <symbol viewBox="0 0 115.383 115.383" id="note" xmlns="http://www.w3.org/2000/svg">
    <path d="M11.025 87.78h93.333c1.931 0 3.5-1.57 3.5-3.5v-60c0-1.93-1.569-3.5-3.5-3.5H11.025c-1.93 0-3.5 1.57-3.5 3.5v60c0 1.93 1.571 3.5 3.5 3.5zm-.5-63.5a.5.5 0 0 1 .5-.5h93.333a.5.5 0 0 1 .5.5v60a.5.5 0 0 1-.5.5H11.025a.5.5 0 0 1-.5-.5v-60zm104.858 66.178v2.801c0 .742-.602 1.344-1.344 1.344H1.344A1.344 1.344 0 0 1 0 93.259v-2.801h47.387c.234.781.95 1.354 1.807 1.354H66.19a1.89 1.89 0 0 0 1.807-1.354h47.386z" />
  </symbol>
  <symbol viewBox="0 0 348.077 348.077" id="phone" xmlns="http://www.w3.org/2000/svg">
    <path d="M340.273 275.083l-53.755-53.761c-10.707-10.664-28.438-10.34-39.518.744l-27.082 27.076a792.327 792.327 0 0 1-5.344-2.973c-17.102-9.476-40.509-22.464-65.14-47.113-24.704-24.701-37.704-48.144-47.209-65.257-1.003-1.813-1.964-3.561-2.913-5.221l18.176-18.149 8.936-8.947c11.097-11.1 11.403-28.826.721-39.521L73.39 8.194c-10.682-10.68-28.421-10.356-39.518.744l-15.15 15.237.414.411c-5.08 6.482-9.325 13.958-12.484 22.02C3.74 54.28 1.927 61.603 1.098 68.941-6 127.785 20.89 181.564 93.866 254.541c100.875 100.868 182.167 93.248 185.674 92.876 7.638-.913 14.958-2.738 22.397-5.627 7.992-3.122 15.463-7.361 21.941-12.43l.331.294 15.348-15.029c11.074-11.098 11.393-28.83.716-39.542z" />
  </symbol>
  <symbol viewBox="0 0 60.064 60.064" id="plane" xmlns="http://www.w3.org/2000/svg">
    <path d="M59.84 7.897a.993.993 0 0 0-.893-.353.957.957 0 0 0-.224.039L.738 23.354a1.002 1.002 0 0 0-.738.939c-.011.441.269.838.688.976l21.217 6.952-1.898 15.182a1 1 0 0 0 1.6.918l7.765-5.946 6.807 9.725a.999.999 0 0 0 .819.427l.068-.002a.998.998 0 0 0 .821-.542l22.063-43a.992.992 0 0 0-.11-1.086zm-6.945 3.344L22.861 30.429 4.484 24.408l48.411-13.167zm-30.607 34.04l1.382-11.053 4.555 6.507-5.937 4.546zm14.58 4.313l-12.45-17.786 32.1-20.508-19.65 38.294z" />
  </symbol>
  <symbol viewBox="0 0 511.999 511.999" id="purse" xmlns="http://www.w3.org/2000/svg">
    <path d="M468.549 79.082h-16.923l-26.2-73.531-206.36 73.531H43.45C19.492 79.082 0 98.574 0 122.532v340.464c0 23.959 19.492 43.451 43.45 43.451h425.099c23.959 0 43.45-19.492 43.45-43.451V122.532c.001-23.958-19.491-43.45-43.45-43.45zm-61.567-34.668l12.353 34.669H309.688l97.294-34.669zm74.601 418.583c0 7.187-5.847 13.034-13.033 13.034H43.45c-7.187 0-13.033-5.847-13.033-13.034V122.532c0-7.187 5.847-13.033 13.033-13.033h425.099c7.187 0 13.033 5.847 13.033 13.033v105.001H335.367c-23.959 0-43.45 19.492-43.45 43.451v43.562c0 23.959 19.492 43.45 43.45 43.45h146.216v105.001zm0-135.418H335.367c-7.187 0-13.033-5.847-13.033-13.033v-43.562c0-7.187 5.847-13.034 13.033-13.034h146.216v69.629z" />
    <circle cx="357.342" cy="292.765" r="20.094" />
  </symbol>
  <symbol viewBox="0 0 485.213 485.213" id="search" xmlns="http://www.w3.org/2000/svg">
    <path d="M471.882 407.567L360.567 296.243a214.267 214.267 0 0 1-64.331 64.321L407.56 471.888c17.772 17.768 46.587 17.768 64.321 0 17.773-17.739 17.773-46.554.001-64.321zM363.909 181.955C363.909 81.473 282.44 0 181.956 0 81.474 0 .001 81.473.001 181.955s81.473 181.951 181.955 181.951c100.484 0 181.953-81.469 181.953-181.951zM181.956 318.416c-75.252 0-136.465-61.208-136.465-136.46 0-75.252 61.213-136.465 136.465-136.465 75.25 0 136.468 61.213 136.468 136.465 0 75.252-61.218 136.46-136.468 136.46z" />
    <path d="M75.817 181.955h30.322c0-41.803 34.014-75.814 75.816-75.814V75.816c-58.517 0-106.138 47.621-106.138 106.139z" />
  </symbol>
  <symbol viewBox="0 0 490.667 490.667" id="shop" xmlns="http://www.w3.org/2000/svg">
    <path d="M437.333 0h-384C23.467 0 0 23.467 0 53.333V352c0 29.867 23.467 53.333 53.333 53.333h160v21.333h-74.667c-29.867 0-53.333 23.467-53.333 53.333 0 6.4 4.267 10.667 10.667 10.667h298.667c6.4 0 10.667-4.267 10.667-10.667 0-29.867-23.467-53.333-53.333-53.333h-74.667v-21.333h160c29.867 0 53.333-23.467 53.333-53.333V53.333C490.667 23.467 467.2 0 437.333 0zM352 448c14.933 0 25.6 8.533 29.867 21.333H108.8c4.267-12.8 17.067-21.333 29.867-21.333H352zm-117.333-21.333v-21.333H256v21.333h-21.333zM469.333 352c0 17.066-14.933 32-32 32h-384c-17.067 0-32-14.934-32-32v-10.667h448V352zm0-32h-448V53.333c0-17.066 14.933-32 32-32h384c17.067 0 32 14.934 32 32V320z" />
    <path d="M309.333 234.667c-17.067 0-32 14.934-32 32s14.933 32 32 32 32-14.934 32-32-14.933-32-32-32zm0 42.666c-6.4 0-10.667-4.267-10.667-10.667 0-6.4 4.267-10.667 10.667-10.667S320 260.267 320 266.667c0 6.399-4.267 10.666-10.667 10.666zM377.6 91.734c2.133-4.267 0-6.4-4.267-6.4H151.467l-4.267-12.8C145.067 68.266 140.8 64 136.534 64H93.867c-6.4 0-10.667 4.267-10.667 10.667 0 6.4 4.267 10.667 10.667 10.667H128l40.533 162.133c2.133 4.267 6.4 8.533 10.667 8.533h2.133c6.4-2.133 8.533-6.4 8.533-12.8l-8.533-29.867 168.533-19.2c4.267 0 8.533-4.267 8.533-8.533l21.333-85.333c.001-2.134.001-6.4-2.132-8.533zm-34.133 78.933l-164.267 19.2-21.333-85.333h202.667l-17.067 66.133z" />
    <path d="M224 234.667c-17.067 0-32 14.934-32 32s14.933 32 32 32 32-14.934 32-32-14.933-32-32-32zm0 42.666c-6.4 0-10.667-4.267-10.667-10.667 0-6.4 4.267-10.667 10.667-10.667 6.4 0 10.667 4.267 10.667 10.667 0 6.4-4.267 10.667-10.667 10.667z" />
  </symbol>
  <symbol viewBox="0 0 510 510" id="star" xmlns="http://www.w3.org/2000/svg">
    <path d="M255 402.212l157.59 95.038-41.693-179.239L510 197.472l-183.37-15.734L255 12.75l-71.629 168.988L0 197.472l139.103 120.539L97.41 497.25z" />
  </symbol>
  <symbol viewBox="0 0 512 512" id="translate" xmlns="http://www.w3.org/2000/svg">
    <path d="M462.863 95.24H270.286L241.455 7.197A10.45 10.45 0 0 0 231.524 0H49.137C22.043 0 0 22.043 0 49.138v318.478c0 27.095 22.043 49.138 49.137 49.138h192.115l29.311 88.095a10.449 10.449 0 0 0 9.914 7.15h182.384C489.957 512 512 489.957 512 462.862V144.38c0-27.095-22.043-49.14-49.137-49.14zM49.137 395.857c-15.571 0-28.239-12.669-28.239-28.241V49.138c0-15.571 12.668-28.24 28.239-28.24h174.814l122.783 374.96H49.137zm301.321-109.321a306.829 306.829 0 0 0 16.206 22.461 294.822 294.822 0 0 1-19.759 20.226l-28.768-87.852h8.273c3.62 8.945 11.118 25.395 24.048 45.165zm-1.266-45.165h62.165c-5.469 11.908-15.308 30.468-31.079 51.099a285.211 285.211 0 0 1-11.901-16.717c-9.028-13.722-15.237-25.776-19.185-34.382zm-85.914 175.384h75.328l-54.084 63.85-21.244-63.85zm199.585 74.347H303.018l65.929-77.834a10.395 10.395 0 0 0 2.673-6.961c0-1.378-.266-2.695-.751-3.9l-16.85-51.458a317.52 317.52 0 0 0 26.302-25.839 318.683 318.683 0 0 0 69.799 57.876 10.442 10.442 0 0 0 14.367-3.455c3.013-4.921 1.466-11.354-3.456-14.367a297.884 297.884 0 0 1-67.082-56.152c23.199-29.342 35.285-55.429 40.202-67.64h30.828c5.77 0 10.449-4.678 10.449-10.449s-4.679-10.449-10.449-10.449h-74.907V202.71c0-5.771-4.679-10.449-10.449-10.449s-10.449 4.678-10.449 10.449v17.763h-57.882l-34.165-104.335h185.734c15.571 0 28.239 12.669 28.239 28.24v318.483h.001c.001 15.572-12.667 28.241-28.238 28.241z" />
    <path d="M213.613 199.016h-59.202c-5.771 0-10.449 4.678-10.449 10.449s4.678 10.449 10.449 10.449h47.777c-4.91 25.944-27.75 45.628-55.1 45.628-30.921 0-56.077-25.156-56.077-56.077s25.156-56.077 56.077-56.077a56.09 56.09 0 0 1 36.343 13.368c4.391 3.742 10.988 3.215 14.73-1.178 3.742-4.394 3.214-10.988-1.179-14.73a77.002 77.002 0 0 0-49.894-18.358c-42.444 0-76.974 34.531-76.974 76.974-.001 42.443 34.529 76.973 76.973 76.973 42.444 0 76.974-34.531 76.974-76.975.001-5.767-4.677-10.446-10.448-10.446zm-11.991 152.418h-4.678c-5.77 0-10.449 4.678-10.449 10.449s4.679 10.449 10.449 10.449h4.678c5.77 0 10.449-4.678 10.449-10.449s-4.679-10.449-10.449-10.449zm-38.481 0H61.649c-5.77 0-10.449 4.678-10.449 10.449s4.679 10.449 10.449 10.449h101.492c5.77 0 10.449-4.678 10.449-10.449s-4.679-10.449-10.449-10.449z" />
  </symbol>
  <symbol viewBox="0 0 455.731 455.731" id="tw" xmlns="http://www.w3.org/2000/svg">
    <path d="M0 0h455.731v455.731H0z" />
    <path d="M60.377 337.822c30.33 19.236 66.308 30.368 104.875 30.368 108.349 0 196.18-87.841 196.18-196.18 0-2.705-.057-5.39-.161-8.067 3.919-3.084 28.157-22.511 34.098-35 0 0-19.683 8.18-38.947 10.107-.038 0-.085.009-.123.009 0 0 .038-.019.104-.066 1.775-1.186 26.591-18.079 29.951-38.207 0 0-13.922 7.431-33.415 13.932a223.578 223.578 0 0 1-10.088 3.103c-12.565-13.41-30.425-21.78-50.25-21.78-38.027 0-68.841 30.805-68.841 68.803a68.67 68.67 0 0 0 1.784 15.592c-5.314-.218-86.237-4.755-141.289-71.423 0 0-32.902 44.917 19.607 91.105 0 0-15.962-.636-29.733-8.864 0 0-5.058 54.416 54.407 68.329 0 0-11.701 4.432-30.368 1.272 0 0 10.439 43.968 63.271 48.077 0 0-41.777 37.74-101.081 28.885l.019.005z" />
  </symbol>
  <symbol viewBox="0 0 71.234 71.234" id="tweak" xmlns="http://www.w3.org/2000/svg">
    <path d="M30.465 12.433c.224.447.447.896.672 1.567h38.527v6.271H31.137c-.225.448-.448 1.12-.672 1.567h40.768v-9.185H30.465v-.22zm14.783 20.16h24.641v6.27H45.248c-.223.449-.447 1.121-.672 1.57h26.656v-9.185H44.576c.225.225.449.897.672 1.345zm13.888 18.592h10.527v6.271H59.136c-.225.447-.446 1.119-.672 1.566h12.771v-9.185H58.464c.225.226.448.898.672 1.348zM21.729 24.977c4.256 0 7.84-3.36 7.84-7.84 0-4.257-3.36-7.841-7.84-7.841-2.464 0-4.704 1.12-6.048 3.137H0v9.184h15.456c1.569 2.015 3.809 3.36 6.273 3.36zm13.887 18.59c4.256 0 7.84-3.356 7.84-7.838 0-4.256-3.358-7.84-7.84-7.84-2.464 0-4.704 1.119-6.048 3.136H0v9.186h29.345c1.567 2.013 3.808 3.356 6.271 3.356zm13.89 2.912c-2.465 0-4.705 1.121-6.049 3.138H0v9.186h43.457a7.84 7.84 0 0 0 6.271 3.136c4.256 0 7.84-3.359 7.84-7.84-.222-4.036-3.807-7.62-8.062-7.62z" />
  </symbol>
  <symbol viewBox="0 0 331.493 331.493" id="wallet" xmlns="http://www.w3.org/2000/svg">
    <path d="M298.761 57.093l-101.2-54.8c-9.6-5.2-22.8-1.2-28 8.4l-59.2 110h-72c-9.2 0-16.4 7.2-16.4 16.4v178c0 9.2 7.2 16.4 16.4 16.4h230c9.2 0 16.4-7.2 16.4-16.4v-41.6h6.8c3.6 0 6.4-2.8 6.4-6.4v-47.6c0-3.6-2.8-6.4-6.4-6.4h-6.8v-46.8c0-7.6-5.6-14.4-12.8-16l35.2-65.2c5.2-10 1.6-22.4-8.4-28zm-72-24.4l-63.2 117.2h-18l67.6-124.4 13.6 7.2zm-45.6-16c2-3.6 6.8-5.2 10.4-3.2l10 5.6-70.4 130.8h-22l72-133.2zm-146.8 120c0-1.2 1.6-3.2 3.6-3.2h65.2l-8.8 16h-56.4c-1.2 0-2.4 0-3.6.4v-13.2zm237.2 178.4c0 2-1.6 3.6-3.6 3.6h-230c-2 0-3.6-1.6-3.6-3.6v-148.8c0-2 1.6-3.6 3.6-3.6h229.6c2 0 3.6 1.6 3.6 3.6v46.8h-24.4c-10.8 0-19.2 8.8-19.2 19.2v22c0 10.8 8.8 19.2 19.2 19.2h24.8v41.6zm12.8-89.2h.4v34.8h-38c-3.6 0-6.4-2.8-6.4-6.4v-22c0-3.6 2.8-6.4 6.4-6.4h37.6zm11.2-147.2l-38.4 71.2h-79.2l60-110.8 54.4 29.6c4 1.6 5.2 6.4 3.2 10z" />
    <path d="M271.161 72.693l-3.2-1.6c-8-4.4-18.8-1.2-23.2 6.8l-4 7.6c-2 4-2.8 8.8-1.2 13.2 1.2 4.4 4.4 8 8.4 10l3.2 1.6c2.4 1.2 5.2 2 8 2 6.4 0 12-3.6 15.2-8.8l4-7.6c4-8.4.8-18.8-7.2-23.2zm-4.4 17.2l-4 7.6c-1.2 2-4 2.8-6 1.6l-3.2-2c-.8-.4-1.6-1.6-2-2.4-.4-1.2-.4-2.4.4-3.2l4-7.6c.8-1.2 2.4-2.4 4-2.4.8 0 1.2 0 2 .4l3.2 1.6c1.6 1.6 2.4 4 1.6 6.4z" />
  </symbol>
  <symbol xmlns="http://www.w3.org/2000/svg" id="amazon_a" viewBox="0 0 24 24">
    <path d="M13.958 10.09c0 1.232.029 2.256-.591 3.351-.502.891-1.301 1.438-2.186 1.438-1.214 0-1.922-.924-1.922-2.292 0-2.692 2.415-3.182 4.7-3.182v.685zm3.186 7.705c-.209.189-.512.201-.745.074-1.052-.872-1.238-1.276-1.814-2.106-1.734 1.767-2.962 2.297-5.209 2.297-2.66 0-4.731-1.641-4.731-4.925 0-2.565 1.391-4.309 3.37-5.164 1.715-.754 4.11-.891 5.942-1.095v-.41c0-.753.06-1.642-.383-2.294-.385-.579-1.124-.82-1.775-.82-1.205 0-2.277.618-2.54 1.897-.054.285-.261.567-.549.582l-3.061-.333c-.259-.056-.548-.266-.472-.66.704-3.716 4.06-4.838 7.066-4.838 1.537 0 3.547.41 4.758 1.574 1.538 1.436 1.392 3.352 1.392 5.438v4.923c0 1.481.616 2.13 1.192 2.929.204.287.247.63-.01.839-.647.541-1.794 1.537-2.423 2.099l-.008-.007zm3.559 1.988c-2.748 1.472-5.735 2.181-8.453 2.181-4.027 0-7.927-1.393-11.081-3.706-.277-.202-.481.154-.251.416 2.925 3.326 6.786 5.326 11.076 5.326 3.061 0 6.614-1.214 9.066-3.494.406-.377.058-.945-.357-.723zm.67 2.216c-.091.227.104.32.31.147 1.339-1.12 1.685-3.466 1.411-3.804-.272-.336-2.612-.626-4.04.377-.22.154-.182.367.062.337.805-.096 2.595-.312 2.913.098.319.41-.355 2.094-.656 2.845z" fill-rule="evenodd" clip-rule="evenodd" />
    <symbol xmlns="http://www.w3.org/2000/svg" id="click" viewBox="0 0 297 297">
      <path d="M294.077,251.199l-59.104-59.106l42.166-24.357c3.295-1.904,5.213-5.521,4.938-9.316c-0.273-3.796-2.69-7.101-6.225-8.51 L87.82,74.905c-3.687-1.472-7.895-0.605-10.702,2.201c-2.807,2.808-3.674,7.016-2.203,10.702l74.994,188.053 c1.41,3.534,4.715,5.952,8.511,6.226c3.796,0.276,7.413-1.643,9.316-4.939l24.353-42.166l59.102,59.107 c1.862,1.864,4.389,2.91,7.023,2.91c2.634,0,5.16-1.046,7.022-2.91l28.841-28.844C297.956,261.366,297.956,255.078,294.077,251.199 z M258.214,273.022l-61.229-61.235c-1.876-1.876-4.407-2.91-7.023-2.91c-0.43,0-0.864,0.028-1.295,0.085 c-3.063,0.402-5.763,2.206-7.306,4.881l-20.584,35.642l-58.849-147.564l147.549,58.857l-35.645,20.588 c-2.674,1.543-4.478,4.243-4.88,7.306c-0.403,3.06,0.64,6.134,2.824,8.318l61.232,61.235L258.214,273.022z" />
      <path d="M43.611,29.552c-3.88-3.876-10.166-3.876-14.048,0c-3.879,3.88-3.879,10.168,0,14.048l22.069,22.069 c1.939,1.938,4.482,2.909,7.024,2.909c2.541,0,5.082-0.971,7.023-2.909c3.878-3.879,3.878-10.168,0-14.047L43.611,29.552z" />
      <path d="M51.089,98.215c0-5.485-4.448-9.931-9.933-9.931H9.946c-5.484,0-9.933,4.445-9.933,9.931c0,5.484,4.448,9.932,9.933,9.932 h31.21C46.641,108.146,51.089,103.699,51.089,98.215z" />
      <path d="M47.063,128.87l-22.071,22.071c-3.88,3.877-3.88,10.166,0,14.045c1.939,1.939,4.479,2.909,7.023,2.909 c2.541,0,5.082-0.97,7.021-2.909l22.072-22.07c3.879-3.878,3.879-10.168,0-14.046C57.231,124.992,50.943,124.992,47.063,128.87z" />
      <path d="M98.222,51.078c5.484,0,9.932-4.448,9.932-9.933V9.932c0-5.484-4.447-9.932-9.932-9.932c-5.485,0-9.931,4.447-9.931,9.932 v31.214C88.291,46.63,92.736,51.078,98.222,51.078z" />
      <path d="M135.893,64.005c2.544,0,5.085-0.968,7.024-2.908l22.068-22.069c3.88-3.879,3.88-10.168,0-14.046 c-3.878-3.879-10.169-3.879-14.045,0l-22.069,22.069c-3.879,3.878-3.879,10.168,0,14.046 C130.81,63.037,133.352,64.005,135.893,64.005z" />
    </symbol>
    <symbol id="online_shop" xmlns="http://www.w3.org/2000/svg" viewBox="0 0 1000 1000">
      <g>
        <g transform="translate(0.000000,511.000000) scale(0.100000,-0.100000)">
          <path d="M877.1,4364.5c-41-21.6-97.1-77.7-123-123c-47.5-79.9-49.6-107.9-49.6-559.1v-474.9l-144.6-205.1c-420.9-602.2-459.8-667-459.8-753.3c0-107.9,64.8-319.5,136-438.2c71.2-123,246.1-284.9,369.1-345.4l99.3-47.5V-481.4c0-1828.3,2.2-1906,43.2-1992.3c23.7-54,71.2-110.1,112.2-136c69.1-41,105.8-43.2,1642.6-43.2h1569.3v-313v-313h-757.6h-757.7l-73.4-73.4l-73.4-73.4v-336.7c0-317.3,2.2-336.7,47.5-379.9c47.5-43.2,60.4-43.2,2696-43.2c2575.1,0,2648.5,2.1,2698.2,41c49.7,41,51.8,51.8,51.8,351.8c0,215.8-8.6,330.2-30.2,379.9c-56.1,131.7-71.2,133.8-897.9,133.8h-744.7v313v313h1420.3c1383.6,0,1420.3,2.1,1489.4,43.2c41,25.9,88.5,82,112.2,136c41,86.3,43.2,164.1,43.2,1962.1v1871.4l131.7,69.1c304.4,164,520.2,565.5,464.1,867.7c-8.6,45.3-127.3,237.4-304.3,492.1l-291.4,418.8v464.1c0,440.3-2.1,470.6-47.5,561.2c-30.2,58.3-77.7,107.9-125.2,133.8c-71.2,36.7-246.1,38.8-4122.8,38.8C1099.4,4405.5,948.3,4403.3,877.1,4364.5z M8993.2,3883.1c0-213.7,0-218-41-181.3c-110.1,101.5,17.3,97.1-3930.7,97.1c-2154.2,0-3758-6.5-3807.6-19.4c-47.5-10.8-112.3-38.8-146.8-64.8l-60.4-45.3v218v215.9h3993.3h3993.3V3883.1z M2006,3483.8c10.8-19.4-233.1-1178.5-254.7-1213.1c-8.6-15.1-231-23.7-673.5-23.7c-537.5,0-656.2,4.3-647.6,28.1c13,32.4,779.2,1128.9,831,1187.2c28.1,32.4,75.5,36.7,384.2,36.7C1839.8,3498.9,2001.7,3492.4,2006,3483.8z M3165.1,3462.2c0-90.7-110.1-1178.5-120.9-1195.8c-13-21.6-980-28.1-980-6.5c0,28.1,263.3,1206.6,272,1221.7c6.5,8.6,194.3,17.3,420.9,17.3C3130.6,3498.9,3165.1,3496.7,3165.1,3462.2z M4330.7,3440.6c0-79.9-107.9-1131.1-118.7-1165.6c-6.5-21.6-110.1-28.1-418.8-28.1c-224.5,0-414.4,6.5-418.8,17.3c-6.5,10.8,101.4,1202.3,112.2,1230.4c2.2,2.2,192.1,4.3,423.1,4.3h420.9V3440.6z M5345.2,3494.6c32.4-259,123-1219.6,114.4-1230.4c-12.9-21.6-906.6-21.6-921.7,0c-4.3,8.6,19.4,287.1,54,619.5c34.5,332.4,62.6,606.5,62.6,610.9c0,2.2,155.4,4.3,345.4,4.3C5189.8,3498.9,5345.2,3496.7,5345.2,3494.6z M6513,3494.6c10.8-30.2,116.6-1230.4,107.9-1236.8c-4.3-6.5-192.1-10.8-416.6-10.8c-306.5,0-410.1,6.5-416.6,28.1c-10.8,32.4-118.7,1083.6-118.7,1165.6v58.3h420.9C6320.9,3498.9,6510.8,3496.7,6513,3494.6z M7663.5,3479.5c10.8-15.1,272-1191.5,272-1219.6c0-21.6-967-15.1-980,4.3c-10.8,19.4-120.9,1100.9-120.9,1191.5c0,41,12.9,43.2,408,43.2C7469.2,3498.9,7657,3490.3,7663.5,3479.5z M8893.9,3250.7c243.9-338.9,662.6-943.3,675.6-975.7c15.1-38.9-1299.4-41-1323.2-4.3c-21.6,36.7-263.3,1193.7-252.5,1213.1c6.5,8.6,170.5,13,369.1,10.8l358.3-6.5L8893.9,3250.7z M1548.4,1886.5c-177-222.3-531-306.5-777.1-181.3c-99.3,51.8-211.5,142.5-241.8,198.6c-19.4,38.9-4.3,41,520.2,41h541.8L1548.4,1886.5z M2970.8,1929.6c0-38.8-120.9-164-211.5-215.9c-133.8-79.9-356.2-84.2-492.1-12.9c-86.3,47.5-224.5,183.5-224.5,222.3c0,13,181.3,21.6,464.1,21.6C2761.5,1944.8,2970.8,1938.3,2970.8,1929.6z M4266,1929.6c0-36.7-120.9-164-205.1-211.5c-235.3-140.3-578.5-60.4-708,159.7l-38.9,66.9h474.9C4052.3,1944.8,4266,1938.3,4266,1929.6z M5453.2,1925.3c0-21.6-82-129.5-129.5-170.5c-69.1-60.4-209.4-112.2-302.2-112.2s-233.1,51.8-302.2,112.2c-47.5,41-129.5,148.9-129.5,170.5c0,10.8,194.3,19.4,431.7,19.4C5258.9,1944.8,5453.2,1936.1,5453.2,1925.3z M6683.5,1921c0-15.1-45.3-71.2-101.5-127.3c-161.9-161.9-345.4-192.1-541.8-95c-99.3,49.6-220.2,174.8-220.2,228.8c0,10.8,194.3,17.3,431.7,17.3C6560.5,1944.8,6683.5,1938.3,6683.5,1921z M7877.2,1877.8c-92.8-161.9-295.7-254.7-487.8-226.6c-114.4,17.3-252.6,112.2-321.6,224.5l-43.2,69.1h446.8h446.8L7877.2,1877.8z M9511.2,1923.2c0-13-47.5-69.1-103.6-127.4c-263.3-263.3-692.9-222.3-910.9,84.2l-45.3,64.8h528.8C9336.4,1944.8,9511.2,1938.3,9511.2,1923.2z M8317.5,1614.5l71.2-79.9l-4.3-1172.1L8378-807.4H4999.9H1621.8l-6.5,1165.6L1611,1526l97.1,95l97.1,95l75.5-88.5c293.6-345.4,811.6-377.7,1174.2-73.4l99.3,84.2l103.6-95c144.6-131.7,304.4-187.8,533.2-189.9c161.9,0,200.7,6.5,323.8,64.8c77.7,36.7,179.2,99.3,222.3,138.1l79.9,69.1l60.4-58.3c287.1-289.2,759.8-295.7,1068.5-13l95,86.3l82-84.2c43.2-45.3,140.3-110.1,213.7-142.5c107.9-51.8,161.9-62.6,304.3-62.6c211.5,0,336.7,43.2,500.8,177l118.7,97.1l79.9-75.5c272-267.7,740.4-272,1025.3-13c64.8,58.3,140.3,142.5,166.2,183.5l45.3,75.5l34.5-49.7C8231.2,1718.1,8278.7,1659.8,8317.5,1614.5z M1308.8,220.1c0-755.5,8.6-1185,21.6-1226.1c13-36.7,47.5-75.5,77.7-90.7c77.7-34.5,7105.9-34.5,7183.6,0c30.2,15.1,64.8,54,77.7,90.7c12.9,41,21.6,468.4,21.6,1219.6c0,1090.1,2.1,1152.7,38.8,1137.6c19.4-8.6,88.5-19.4,151.1-25.9l112.2-12.9V-54v-1368.5H4999.9H1006.6V-43.2v1381.4l103.6,13c56.1,6.5,116.6,17.3,133.8,19.4c17.3,4.3,38.9,8.6,49.6,10.8C1302.3,1381.4,1308.8,861.2,1308.8,220.1z M7704.5-1742l1288.6-4.3v-302.2v-302.2H4999.9H1006.6v313v315.1l2704.6-6.5C5196.3-1733.4,6994.4-1737.7,7704.5-1742z M5917.2-2965.9v-302.2H5151h-766.3l-6.5,278.5c-2.2,155.4,0,293.6,4.3,308.7c8.6,23.7,159.7,28.1,772.8,23.7l762-6.5V-2965.9z M7611.7-3732.2v-151.1H5161.8H2711.8v151.1v151.1h2449.9h2449.9V-3732.2z" />
          <path d="M1990.9,992.8l-56.1-43.2V269.7c0-649.7,2.2-679.9,43.2-720.9c41-41,71.2-43.2,720.9-43.2h679.9l43.2,56.1c43.2,56.1,45.3,82.1,45.3,690.7c0,427.4-8.6,649.7-23.7,686.4c-15.1,30.2-54,64.8-90.7,77.7c-38.9,13-306.5,21.6-684.3,21.6C2072.9,1038.2,2047,1036,1990.9,992.8z M3160.8,267.6l4.3-459.8H2701h-464.1v464.1V736l459.8-4.3l457.6-6.5L3160.8,267.6z" />
          <path d="M3784.6,1025.2c-8.6-8.6-15.1-77.7-15.1-153.3V736h464.1h466.2l-6.5,146.8l-6.5,144.6l-444.7,6.5C3998.3,1036,3793.3,1031.7,3784.6,1025.2z" />
          <path d="M3769.5,261.1V110h1079.3H5928v151.1v151.1H4848.8H3769.5V261.1z" />
          <path d="M3769.5-343.3v-151.1h1079.3h1081.4l-6.5,146.8l-6.5,144.6l-1072.8,6.5l-1074.9,4.3V-343.3z" />
        </g>
      </g>
    </symbol>
    <symbol id="sending_email" xmlns="http://www.w3.org/2000/svg" viewBox="0 0 512 512" style="enable-background:new 0 0 512 512;" xml:space="preserve">
      <g>
        <g>
          <g>
            <path d="M464,64H48C21.49,64,0,85.49,0,112v64h32v-60.32l214.72,153.28c5.555,3.955,13.005,3.955,18.56,0L480,115.68V400c0,8.837-7.163,16-16,16H64v32h400c26.51,0,48-21.49,48-48V112C512,85.49,490.51,64,464,64z M256,236.32L59.52,96h392.96L256,236.32z" />
            <rect y="416" width="32" height="32" />
            <rect y="336" width="224" height="32" />
            <rect x="256" y="336" width="32" height="32" />
            <rect y="256" width="32" height="32" />
            <rect x="64" y="256" width="96" height="32" />
          </g>
        </g>
      </g>
    </symbol>
  </symbol>
</svg>