<svg width="566" height="401" fill="none" xmlns="http://www.w3.org/2000/svg"><path fill-rule="evenodd" clip-rule="evenodd" d="M61.304 100.606c37.781-32.649 98.728-34.4 151.792-48.322 46.571-12.22 90.839-34.873 139.156-28.018 49.059 6.96 86.142 36.473 120.797 64.899 35.906 29.45 69.392 61.171 81.45 100.988 13.249 43.753 21.058 94.315-11.094 131.342-31.677 36.479-96.271 38.762-149.109 53.147-47.346 12.889-92.653 27.404-142.713 26.299-59.375-1.312-122.991-3.123-168.77-33.179-48.801-32.042-78.34-81.6-82.375-131.713-3.95-49.055 18.986-99.253 60.866-135.443z" fill="#fff"/><g clip-path="url(#clip0_5145_44909)"><path d="M206.196 52.542c-3.554-19.021 2.041-40.661 17.593-52.175a89.157 89.157 0 0018.586 58.321c4.992 6.399 11.211 12.995 11.018 21.109-.12 5.048-2.85 9.75-6.448 13.294-3.598 3.543-8.03 6.098-12.41 8.612l-.681 1.061c-12.837-14.48-24.104-31.2-27.658-50.222z" fill="#76CFFF"/><path d="M224.074.658a76.208 76.208 0 00-5.031 46.614 32.814 32.814 0 003.475 9.677 18.825 18.825 0 007.11 6.897c2.714 1.568 5.672 2.858 7.958 5.059a11.53 11.53 0 013.392 8.793c-.109 4.047-1.666 7.813-3.317 11.444-1.833 4.03-3.8 8.188-3.682 12.72.015.549-.838.539-.852-.009-.207-7.885 5.493-14.217 6.763-21.782.593-3.53.125-7.26-2.357-9.997-2.17-2.392-5.219-3.725-7.981-5.29a20.088 20.088 0 01-7.203-6.484 30.33 30.33 0 01-3.834-9.507 73.926 73.926 0 01-1.676-23.046A77.538 77.538 0 01223.342.22c.223-.5.954-.059.732.438z" fill="#fff"/><path d="M217.694 42.285a11.43 11.43 0 01-11.927-8.77c-.125-.534.7-.752.824-.217a10.588 10.588 0 0011.112 8.134c.548-.04.536.812-.009.853zm10.453 20.947a22.038 22.038 0 005.523-15.08c-.013-.549.84-.54.853.01a22.924 22.924 0 01-5.78 15.68c-.365.41-.96-.201-.596-.61zm-9.613-45.773a6.47 6.47 0 005.749-2.158c.36-.416.955.196.597.609a7.255 7.255 0 01-6.355 2.402.443.443 0 01-.421-.431.428.428 0 01.43-.422z" fill="#fff"/><path d="M287.389 16.1c-.217.266-.435.532-.65.804a85.251 85.251 0 00-7.801 11.415c-.181.307-.361.621-.533.933a89.84 89.84 0 00-10.484 31.375 87.278 87.278 0 00-.8 13.233c.096 6.11.687 12.73-1.187 18.35a15.01 15.01 0 01-.674 1.725l-30.059 9.578c-.079-.013-.157-.019-.236-.031l-1.183.437c-.02-.228-.035-.465-.055-.693-.011-.132-.017-.266-.028-.398-.006-.089-.012-.178-.022-.258a1.314 1.314 0 01-.004-.082c-.01-.08-.011-.155-.019-.228a247.82 247.82 0 01-.241-3.98c-.002-.007-.002-.007.002-.016-.516-10.132-.19-20.396 1.683-30.285.056-.297.11-.601.18-.903a83.329 83.329 0 013.682-13.08 73.75 73.75 0 012.969-6.83 61.207 61.207 0 0111.111-15.581c8.967-9.128 20.754-15.285 33.384-15.48.323-.004.64-.007.965-.005z" fill="#76CFFF"/><path d="M287.443 16.504a76.203 76.203 0 00-32.081 34.19 32.812 32.812 0 00-3.052 9.819 18.82 18.82 0 001.525 9.787c1.223 2.886 2.808 5.697 3.308 8.83a11.518 11.518 0 01-2.586 9.064c-2.524 3.165-6.035 5.235-9.538 7.14-3.89 2.114-7.965 4.25-10.598 7.939-.319.447-.994-.074-.676-.52 4.582-6.42 12.946-8.044 18.515-13.32 2.598-2.462 4.471-5.721 4.137-9.4-.292-3.218-1.925-6.117-3.188-9.029a20.09 20.09 0 01-1.848-9.515 30.366 30.366 0 012.663-9.9 73.923 73.923 0 0112.538-19.409 77.537 77.537 0 0120.561-16.466c.479-.265.797.527.32.79z" fill="#fff"/><path d="M257.288 45.9a11.43 11.43 0 01-4.244-14.183c.222-.502 1.012-.18.789.322a10.585 10.585 0 003.975 13.185c.462.297-.061.97-.52.676zm-4.266 23.018a22.04 22.04 0 0013.49-8.715c.32-.446.995.076.675.521a22.92 22.92 0 01-14.055 9.04c-.539.108-.646-.738-.11-.846zm19.884-42.335a6.47 6.47 0 005.89 1.738c.537-.115.643.732.109.846a7.251 7.251 0 01-6.52-1.909.44.44 0 01-.077-.598.427.427 0 01.598-.077z" fill="#fff"/><path d="M377.784 144.193c.079.349.131.703.154 1.06l27.763 16.016 6.748-3.884 7.194 9.417-11.278 8.039a5.173 5.173 0 01-6.203-.151l-28.628-22.586a6.788 6.788 0 01-9.097-5.606 6.778 6.778 0 013.649-6.794 6.79 6.79 0 013.981-.688 6.791 6.791 0 015.717 5.177z" fill="#FFB6B6"/><path d="M406.085 159.502a2.903 2.903 0 011.451-1.94l12.817-6.983a8.076 8.076 0 019.765 12.868l-10.273 10.436a2.911 2.911 0 01-2.263.862 2.91 2.91 0 01-2.131-1.151l-8.845-11.727a2.91 2.91 0 01-.521-2.365z" fill="#1D4C66"/><path d="M421.461 125.878c1.844-5.878 6.038-11.268 11.838-13.255 5.8-1.987 14.293 1.04 18.653 5.386 7.976 7.949 8.222 17.68 2.742 26.31-1.09-.058-4.851-.101-5.954-.142l-1.561-5.201v5.15c-8.611-.266-17.575-.1-26.544.073-.804-6.11-1.019-12.444.826-18.321z" fill="#3B3D42"/><path d="M426.518 365.602h-7.854l-3.736-30.293h11.591l-.001 30.293zm48.404 0h-7.854l-3.736-30.293h11.592l-.002 30.293zm-22.933-186.057l1.779 4.627-.356 4.627-34.828 12.063 1.728-20.249 3.915-4.627 27.762 3.559z" fill="#FFB6B6"/><path d="M434.031 144.319c6.87 0 12.439-5.569 12.439-12.439s-5.569-12.44-12.439-12.44-12.439 5.57-12.439 12.44c0 6.87 5.569 12.439 12.439 12.439z" fill="#FFB7B7"/><path d="M459.786 200.776v7.906s9.254 12.025 4.271 21.279l14.277 123.15h-14.948L438.431 249.18l-10.636 101.795h-12.813l-1.528-80.959a172.08 172.08 0 0110.486-62.477l35.846-6.763z" fill="#027FC2"/><path d="M425.484 115.682a15.626 15.626 0 0123.754 13.636c-6.953.319-14.257.403-21.664.417l-1.75-4.284-1.032 4.287c-2.257 0-4.518-.003-6.783-.009a15.943 15.943 0 017.475-14.047z" fill="#3B3D42"/><path d="M430.031 380.515h-5.573l-.994-5.261-2.548 5.261h-14.781a3.323 3.323 0 01-1.888-6.057l11.804-8.151v-5.32l12.415.741 1.565 18.787zm49.116 0h-5.573l-.995-5.261-2.548 5.261h-14.78a3.324 3.324 0 01-1.888-6.057l11.803-8.151v-5.32l12.415.741 1.566 18.787z" fill="#027FC2"/><path d="M465.446 226.131a96.96 96.96 0 00-2.115-28.346c-2.642-11.728-5.999-26.652-6.064-27.038l-.002-.023-1.023-21.861a.256.256 0 00-.075-.168.255.255 0 00-.169-.072l-7.078-.238a.254.254 0 01-.244-.253 4.01 4.01 0 00-1.176-2.839 4.02 4.02 0 00-2.839-1.176h-14.136a3.76 3.76 0 00-3.729 3.291.248.248 0 01-.254.225l-5.5-.185a.25.25 0 00-.25.176l-.383 1.216a127.367 127.367 0 00-4.515 55.315c.666 4.936.364 12.356.112 16.491a3.075 3.075 0 002.893 3.258c10.227.589 39.181 14.598 46.113 7.91.016-.016.201-2.484.434-5.683z" fill="#1D4C66"/><path d="M408.735 144.193c.079.349.131.703.154 1.06l27.763 16.016 6.749-3.884 7.194 9.417-11.278 8.039a5.178 5.178 0 01-6.204-.151l-28.628-22.586a6.788 6.788 0 01-9.097-5.606 6.778 6.778 0 013.65-6.794 6.785 6.785 0 019.697 4.489z" fill="#FFB6B6"/><path d="M437.038 159.501a2.911 2.911 0 011.451-1.939l12.818-6.984a8.078 8.078 0 019.765 12.869l-10.273 10.436a2.908 2.908 0 01-4.395-.289l-8.845-11.727a2.913 2.913 0 01-.521-2.366z" fill="#1D4C66"/><path d="M97.373 337.361c17.889 0 32.39-14.502 32.39-32.391 0-17.888-14.501-32.39-32.39-32.39-17.889 0-32.39 14.502-32.39 32.39 0 17.889 14.501 32.391 32.39 32.391z" fill="#76CFFF"/><path d="M383.598 192.572L148.869 300.341a13.878 13.878 0 01-18.378-6.813L72.566 167.362a13.876 13.876 0 016.812-18.379L314.107 41.215a13.875 13.875 0 0118.378 6.813l57.926 126.166a13.878 13.878 0 01-6.813 18.378z" fill="#fff"/><path d="M83.282 157.487a4.505 4.505 0 00-2.213 5.97l57.925 126.166a4.51 4.51 0 005.971 2.214l234.728-107.769a4.511 4.511 0 002.214-5.97L323.981 51.932a4.506 4.506 0 00-5.97-2.213L83.282 157.487z" fill="#027FC2"/><path d="M383.598 192.572L148.869 300.341a13.878 13.878 0 01-18.378-6.813L72.566 167.362a13.876 13.876 0 016.812-18.379L314.107 41.215a13.875 13.875 0 0118.378 6.813l57.926 126.166a13.878 13.878 0 01-6.813 18.378zm-303.619-42.28a12.431 12.431 0 00-6.105 16.469l57.925 126.166a12.431 12.431 0 0016.47 6.105l234.728-107.768a12.432 12.432 0 006.105-16.47L331.177 48.628a12.435 12.435 0 00-16.47-6.105L79.979 150.292z" fill="#CACACA"/><path d="M324.945 135.321l-186.478 85.615a8.02 8.02 0 01-9.073-1.686l-54.56-55.951a8.01 8.01 0 01-2.14-7.048 8 8 0 014.522-5.814L316.2 40.271a8.003 8.003 0 0110.015 2.835 8.008 8.008 0 011.289 3.513h.032l2.073 81.221a8 8 0 01-4.663 7.481zm-8.136-93.747L77.819 151.745a6.564 6.564 0 00-3.535 7.872 6.57 6.57 0 001.581 2.677l54.56 55.951a6.578 6.578 0 007.442 1.383l186.477-85.616a6.552 6.552 0 003.825-6.135l-2.055-80.502.288-.007-.288.007a6.563 6.563 0 00-6.148-6.386 6.568 6.568 0 00-3.157.585z" fill="#CACACA"/><path d="M208.008 251.143l-58.099 26.674a3.532 3.532 0 11-2.947-6.42l58.098-26.674a3.53 3.53 0 014.783 4.437 3.535 3.535 0 01-1.835 1.983z" fill="#fff"/><path d="M250.511 168.702a18.148 18.148 0 01.534 13.892 18.147 18.147 0 01-29.377 7 18.141 18.141 0 01-4.152-5.743" fill="#CACACA"/><path d="M381.505 364.179H123.219a13.875 13.875 0 01-13.86-13.859V211.492a13.88 13.88 0 0113.86-13.86h258.286a13.875 13.875 0 0113.86 13.86V350.32a13.879 13.879 0 01-13.86 13.859z" fill="#fff"/><path d="M123.219 206.987a4.508 4.508 0 00-4.502 4.503v138.828a4.507 4.507 0 004.502 4.502h258.286a4.505 4.505 0 004.503-4.502V211.49a4.51 4.51 0 00-4.503-4.503H123.219z" fill="#76CFFF"/><path d="M381.505 364.179H123.219a13.875 13.875 0 01-13.86-13.859V211.492a13.88 13.88 0 0113.86-13.86h258.286a13.875 13.875 0 0113.86 13.86V350.32a13.879 13.879 0 01-13.86 13.859zM123.219 199.071a12.436 12.436 0 00-12.42 12.421V350.32a12.435 12.435 0 0012.42 12.42h258.286a12.436 12.436 0 0012.42-12.42V211.492a12.436 12.436 0 00-12.42-12.421H123.219z" fill="#3F3D56"/><path d="M352.089 287.674H146.897a8.018 8.018 0 01-7.542-5.317l-26.238-73.613a8.012 8.012 0 013.849-9.793c1.138-.591 2.4-.9 3.682-.902l263.152-.404a8.008 8.008 0 016.487 3.298 8.009 8.009 0 011.137 7.188l.03.012-32.005 74.679a7.991 7.991 0 01-7.36 4.852zm31.722-88.59l-263.161.405a6.56 6.56 0 00-5.36 2.786 6.552 6.552 0 00-.817 5.985l26.238 73.613a6.58 6.58 0 006.186 4.362h205.192a6.562 6.562 0 006.036-3.98l31.722-74.017.264.113-.264-.113a6.576 6.576 0 00-.554-6.202 6.564 6.564 0 00-5.482-2.952z" fill="#3F3D56"/><path d="M197.491 344.143h-63.93a3.528 3.528 0 01-2.497-1.035 3.528 3.528 0 010-4.994 3.528 3.528 0 012.497-1.035h63.93a3.532 3.532 0 110 7.064z" fill="#fff"/><path d="M270.515 286.957c0 4.815-1.912 9.432-5.317 12.836a18.149 18.149 0 01-25.672 0 18.153 18.153 0 01-5.317-12.836" fill="#3F3D56"/><path d="M155.675 78.237a6.478 6.478 0 100-12.955 6.478 6.478 0 000 12.955zM71.46 233.711a6.478 6.478 0 10.001-12.956 6.478 6.478 0 000 12.956zm323.905-121.644a6.478 6.478 0 100-12.955 6.478 6.478 0 000 12.955z" fill="#76CFFF"/><path d="M506.252 380.515H382.957a.853.853 0 01-.857-.857.857.857 0 01.857-.857h123.295a.856.856 0 010 1.714z" fill="#CACACA"/></g><defs><clipPath id="clip0_5145_44909"><path fill="#fff" transform="translate(64.982)" d="M0 0h442.127v380.515H0z"/></clipPath></defs></svg>